<?xml version="1.0" encoding="utf-8"?>
<!-- Generator: Adobe Illustrator 22.1.0, SVG Export Plug-In . SVG Version: 6.00 Build 0)  -->
<svg version="1.1" id="Layer_1" xmlns="http://www.w3.org/2000/svg" xmlns:xlink="http://www.w3.org/1999/xlink" x="0px" y="0px"
	 viewBox="0 0 664.3 202.7" style="enable-background:new 0 0 664.3 202.7;" xml:space="preserve">
<style type="text/css">
	.st0{fill:#FFFFFF;}
</style>
<title>logo_bw</title>
<g id="Layer_2_1_">
	<g id="Layer_1-2">
		<path d="M205.3,200.7h-22V53.8h22v10.4c8.7-8.7,18.5-13,29.5-13c13.1,0,23.9,4.8,32.3,14.5c8.6,9.6,12.9,21.6,12.9,36.2
			c0,14.3-4.3,26.1-12.8,35.6c-8,9.2-19.8,14.4-32,14.2c-11.1,0-21.1-4.5-29.9-13.4L205.3,200.7L205.3,200.7z M257.6,101.9
			c0-9.1-2.5-16.5-7.4-22.3c-4.6-5.6-11.6-8.8-18.9-8.7c-8.1,0-14.6,2.8-19.6,8.4s-7.5,13-7.5,22.1c0,8.9,2.5,16.3,7.5,22.1
			s11.5,8.5,19.5,8.5c7.3,0.2,14.2-3,18.8-8.6C255,117.7,257.6,110.5,257.6,101.9z"/>
		<path d="M298.8,100.7c-0.2-13.2,5.1-26,14.7-35.1c9.5-9.5,22.5-14.7,35.9-14.5c14.2,0,26.2,4.9,36.1,14.6s14.6,21.6,14.6,35.7
			c0,14.3-4.9,26.2-14.7,35.8s-22,14.4-36.4,14.4s-26.2-4.9-35.8-14.6S298.8,115.2,298.8,100.7z M321.3,101.1c0,9.5,2.5,17,7.6,22.6
			c5.1,5.6,12.1,8.4,20.6,8.4s15.5-2.8,20.6-8.3s7.7-12.9,7.7-22.2s-2.6-16.6-7.7-22.2S358,71,349.5,71s-15.2,2.8-20.4,8.4
			S321.3,92.2,321.3,101.1z"/>
		<path d="M423.5,53.8h22v8.5c4-4.2,7.6-7.1,10.7-8.7c3.5-1.7,7.4-2.5,11.3-2.4c5.8,0,11.8,1.9,18.2,5.7L475.6,77
			c-4.2-3-8.2-4.5-12.2-4.5c-12,0-18,9-18,27.1v49.3h-22C423.4,148.9,423.5,53.8,423.5,53.8z"/>
		<path d="M521,74.3v74.6h-22V74.3h-9.4V53.8h9.4V18.9h22v34.9h17.1v20.5H521z"/>
		<path d="M549.7,14.2c0-3.8,1.5-7.4,4.2-10c5.6-5.6,14.7-5.6,20.3,0c2.8,2.6,4.3,6.3,4.2,10.1c0.1,3.8-1.5,7.5-4.2,10.2
			c-2.6,2.8-6.3,4.3-10.1,4.2c-3.8,0.1-7.5-1.5-10.2-4.2C551.1,21.8,549.6,18.1,549.7,14.2z M575,53.8v95.1h-22V53.8H575z"/>
		<path d="M658.1,70l-18.2,9.7c-2.9-5.9-6.4-8.8-10.6-8.8c-1.9,0-3.8,0.7-5.2,2c-1.4,1.3-2.2,3.2-2.1,5.1c0,3.6,4.2,7.3,12.7,10.8
			c11.7,5,19.5,9.6,23.5,13.9s6.1,9.9,6.1,17.1c0.2,8.8-3.6,17.2-10.2,23c-6.5,5.9-15,9-23.8,8.8c-16,0-27.2-7.8-33.9-23.3l18.8-8.7
			c2.6,4.6,4.6,7.5,6,8.7c2.6,2.4,6,3.8,9.6,3.7c7.4,0,11.1-3.4,11.1-10.2c0-3.9-2.9-7.6-8.6-10.9c-2.2-1.1-4.4-2.2-6.6-3.2
			s-4.5-2.1-6.7-3.2c-6.4-3.1-10.9-6.2-13.5-9.4c-3.3-4-5-9.1-5-15.3c0-8.3,2.8-15.1,8.5-20.5c5.7-5.4,13.3-8.3,21.1-8.1
			C643.1,51.1,652.1,57.4,658.1,70z"/>
		<g id="Layer_2-2">
			<g id="Layer_1-2-2">
				<g id="Layer_1-2-2-2">
					<path class="st0" d="M64.7,141.5L64.7,141.5l1.7,1L64.7,141.5z M127.1,116.2l-8.5-3.7l-2.7-1.2l-2.6-1.2l-2.5,1.5L69.5,136
						V91.1l0,0l-2.4-1l0,0l-2.4,1l0,0V136l-3.9-2.3l-2.4-1.4l-2.4-1.4l-32.5-19.3l-2.5-1.5l0,0l-2.6,1.1l0,0l-2.6,1.1l0,0l-6.6,2.8
						l-2,0.9l-2.6,1.2l0.8,8.8c0.2-1.7,0.4-3.4,0.8-5.1l1.2,0.7l57.3,33.9c-0.1,0.3-0.1,0.7-0.2,1c-0.1,0.7-0.3,1.4-0.4,2.1
						s-0.3,1.4-0.5,2c-0.3,1-0.5,2-0.8,3l-0.3,0.9l-0.3,0.9l-0.6,1.8c-0.3,0.9-0.6,1.8-1,2.6l0,0v0.1l-0.6,1.5
						c-0.2,0.4-0.3,0.7-0.5,1.1l0,0l2.8-0.4l2.7-0.4v-0.1c0.1-0.3,0.3-0.7,0.4-1s0.3-0.7,0.4-1c0.1-0.1,0.1-0.3,0.2-0.4
						c0.1-0.2,0.2-0.4,0.2-0.6c0.2-0.7,0.5-1.4,0.7-2.1c0.1-0.4,0.2-0.7,0.3-1.1c0-0.1,0.1-0.2,0.1-0.3l0.1,0.4l0.3,0.9
						c0.1,0.3,0.2,0.7,0.3,1.1v0.1l0.3,1c0,0.1,0.1,0.2,0.1,0.3c0.1,0.3,0.2,0.5,0.3,0.8l0.6,1.5l0,0l2.4-0.3l0,0l2.4-0.3l0,0
						c-0.1-0.2-0.2-0.3-0.2-0.5c-0.2-0.6-0.4-1.2-0.7-1.7l-0.6-1.8l-0.3-0.9l-0.3-0.9c-0.1-0.2-0.1-0.4-0.2-0.6s-0.2-0.7-0.3-1
						s-0.2-0.7-0.3-1s-0.2-0.7-0.3-1c-0.1-0.3-0.2-0.7-0.2-1c0-0.4-0.2-0.7-0.2-1c-0.1-0.3-0.2-0.7-0.2-1c-0.1-0.3-0.1-0.7-0.2-1
						s-0.1-0.7-0.2-1s-0.1-0.3-0.1-0.5l54.6-32.3l3.7-2.2l1.9-3.9L127.1,116.2z M18.1,113.9l38,22.5l8.6,5.1l0,0l1.7,1l0.6,0.4l0,0
						l0.6-0.4l1.7-1l0,0l46.6-27.6l8.5,3.7l-55.7,32.9l-1.8,1.1l-1.8-1.1l-55.7-33L18.1,113.9z"/>
					<path d="M67.1,90.1L67.1,90.1l-2.4,1l0,0v2.6l0,0l2.4-1l0,0l2.4,1v-2.6L67.1,90.1z M69.4,88.5l-2.4-1l0,0l-2.4,1l0,0v5.1l0,0
						l2.4-1l0,0l2.4,1l0,0V88.5z M69.4,91.1l-2.4-1l0,0l-2.4,1l0,0v2.6l0,0l2.4-1l0,0l2.4,1l0,0V91.1z M69.4,91.1l-2.4-1l0,0v2.6
						l0,0l2.4,1l0,0V91.1z M69.4,91.1l-2.4-1l0,0v2.6l0,0l2.4,1l0,0V91.1z M69.4,91.1l-2.4-1l0,0v2.6l0,0l2.4,1l0,0V91.1z
						 M69.4,91.1l-2.4-1l0,0v2.6l0,0l2.4,1l0,0V91.1z M69.4,91.1l-2.4-1l0,0v2.6l0,0l2.4,1l0,0V91.1z M69.4,91.1l-2.4-1l0,0v2.6l0,0
						l2.4,1l0,0V91.1z M69.4,91.1l-2.4-1l0,0v2.6l0,0l2.4,1l0,0V91.1z M69.4,91.1l-2.4-1l0,0v2.6l0,0l2.4,1l0,0V91.1z M69.4,91.1
						l-2.4-1l0,0v2.6l0,0l2.4,1l0,0V91.1z M69.4,91.1l-2.4-1l0,0v2.6l0,0l2.4,1l0,0V91.1z M69.4,91.1l-2.4-1l0,0v2.6l0,0l2.4,1l0,0
						V91.1z M69.4,91.1l-2.4-1l0,0v2.6l0,0l2.4,1l0,0V91.1z M69.4,91.1l-2.4-1l0,0v2.6l0,0l2.4,1l0,0V91.1z M132.1,116.8l-0.3-1.1
						l-2.2-0.9l-8.5-3.7l-2.7-1.2l-2.7-1.2l-2.5,1.5l-2.5,1.5l2.7,1.2l2.7,1.2l8.5,3.7l2,0.9l-0.5,1l-1.9,3.9l3.7-2.2l0.3-0.2
						c0.2,1.2,0.4,2.5,0.6,3.8l1.8-3.7l1.7-3.5C132.2,117.5,132.1,117.1,132.1,116.8L132.1,116.8z M67.1,90.1L67.1,90.1v2.6l0,0
						l2.4,1l0,0v-2.6l0,0L67.1,90.1z M69.4,91.1l-2.4-1l0,0v2.6l0,0l2.4,1l0,0V91.1z M69.4,91.1l-2.4-1l0,0v2.6l0,0l2.4,1l0,0V91.1z
						 M69.4,91.1l-2.4-1l0,0v2.6l0,0l2.4,1l0,0V91.1z M69.4,91.1l-2.4-1l0,0v2.6l0,0l2.4,1l0,0V91.1z M69.4,91.1l-2.4-1l0,0v2.6l0,0
						l2.4,1l0,0V91.1z M69.4,91.1l-2.4-1l0,0v2.6l0,0l2.4,1l0,0V91.1z M69.4,91.1l-2.4-1l0,0v2.6l0,0l2.4,1l0,0V91.1z M69.4,91.1
						l-2.4-1l0,0v2.6l0,0l2.4,1l0,0V91.1z M69.4,91.1l-2.4-1l0,0v2.6l0,0l2.4,1l0,0V91.1z M69.4,91.1l-2.4-1l0,0v2.6l0,0l2.4,1l0,0
						V91.1z M69.4,91.1l-2.4-1l0,0v2.6l0,0l2.4,1l0,0V91.1z M69.4,91.1l-2.4-1l0,0v2.6l0,0l2.4,1l0,0V91.1z M64.7,91.1L64.7,91.1
						v2.6l0,0l2.4-1v-2.6L64.7,91.1z M64.7,91.1L64.7,91.1v2.6l0,0l2.4-1v-2.6L64.7,91.1z M65.7,169.3l-2.7,0.4l-2.7,0.4l0,0
						l-0.6,1.5c-0.2,0.4-0.3,0.7-0.5,1.1l-0.3,0.6l-0.3,0.6c-0.2,0.3-0.3,0.6-0.5,0.9l-0.3,0.5l0,0l2.9-0.4l0,0l2.8-0.4
						c0.4-0.8,0.8-1.6,1.1-2.5v-0.1c0.1-0.3,0.3-0.7,0.4-1s0.3-0.7,0.4-1C65.5,169.7,65.6,169.5,65.7,169.3z M64.7,91.1L64.7,91.1
						v2.6l0,0l2.4-1v-2.6L64.7,91.1z M64.7,91.1L64.7,91.1v2.6l0,0l2.4-1v-2.6L64.7,91.1z M64.7,91.1L64.7,91.1v2.6l0,0l2.4-1v-2.6
						L64.7,91.1z M64.7,91.1L64.7,91.1v2.6l0,0l2.4-1v-2.6L64.7,91.1z M64.7,91.1L64.7,91.1v2.6l0,0l2.4-1v-2.6L64.7,91.1z
						 M64.7,91.1L64.7,91.1v2.6l0,0l2.4-1v-2.6L64.7,91.1z M64.7,91.1L64.7,91.1v2.6l0,0l2.4-1v-2.6L64.7,91.1z M64.7,91.1
						L64.7,91.1v2.6l0,0l2.4-1v-2.6L64.7,91.1z M64.7,91.1L64.7,91.1v2.6l0,0l2.4-1v-2.6L64.7,91.1z M64.7,91.1L64.7,91.1v2.6l0,0
						l2.4-1v-2.6L64.7,91.1z M64.7,91.1L64.7,91.1v2.6l0,0l2.4-1v-2.6L64.7,91.1z M64.7,91.1L64.7,91.1v2.6l0,0l2.4-1v-2.6
						L64.7,91.1z M18.5,108.6L18.5,108.6l-2.6,1.1l0,0l-2.6,1.1l0,0l-8.5,3.7l-2.2,0.9l-0.3,1.1c0,0.1-0.1,0.3-0.1,0.4l0.9,8.9l0,0
						l0.2,2.3l1.8,2c0.1-1.4,0.2-2.8,0.3-4.3c0.2-1.7,0.4-3.4,0.8-5.1l1.1,0.7L7,118.5l2.7-1.2l8.6-3.7l0,0l2.6-1.1l0,0l2.6-1.1l0,0
						l-2.5-1.5L18.5,108.6z M64.7,91.1L64.7,91.1v2.6l0,0l2.4-1v-2.6L64.7,91.1z M64.7,91.1L64.7,91.1v2.6l0,0l2.4-1v-2.6L64.7,91.1
						z M64.7,91.1L64.7,91.1v2.6l0,0l2.4-1v-2.6L64.7,91.1z M64.7,91.1L64.7,91.1v2.6l0,0l2.4-1v-2.6L64.7,91.1z M64.7,91.1
						L64.7,91.1v2.6l0,0l2.4-1v-2.6L64.7,91.1z M64.7,91.1L64.7,91.1v2.6l0,0l2.4-1v-2.6L64.7,91.1z M64.7,91.1L64.7,91.1v2.6l0,0
						l2.4-1v-2.6L64.7,91.1z M64.7,91.1L64.7,91.1v2.6l0,0l2.4-1v-2.6L64.7,91.1z M64.7,91.1L64.7,91.1v2.6l0,0l2.4-1v-2.6
						L64.7,91.1z M64.7,91.1L64.7,91.1v2.6l0,0l2.4-1v-2.6L64.7,91.1z M64.7,91.1L64.7,91.1v2.6l0,0l2.4-1v-2.6L64.7,91.1z
						 M64.7,91.1L64.7,91.1v2.6l0,0l2.4-1v-2.6L64.7,91.1z M74,170.5L74,170.5c-0.1-0.2-0.2-0.3-0.2-0.5c-0.2-0.6-0.4-1.2-0.7-1.7
						l0,0l-2.4,0.3l0,0l-2.4,0.3c0.1,0.3,0.2,0.5,0.3,0.8l0.6,1.5c0.1,0.2,0.2,0.4,0.2,0.6c0.2,0.6,0.5,1.1,0.7,1.7l0,0l2.4-0.3l0,0
						l2.4-0.3l0,0C74.7,172.1,74.4,171.3,74,170.5z M69.4,91.1l-2.4-1l0,0l-2.4,1l0,0v2.6l0,0l2.4-1l0,0l2.4,1l0,0V91.1z M69.4,91.1
						l-2.4-1l0,0l-2.4,1l0,0v2.6l0,0l2.4-1l0,0l2.4,1l0,0V91.1z"/>
					<path class="st0" d="M116.7,87.3c-2.2-2.6-4.6-5.1-7.2-7.4l6,10l3.8,1.7L116.7,87.3z M63.9,66.5l0.3,0.2l0.4-0.2H63.9z
						 M67.1,77.3l-1.3,0.6l-1,0.5l-6.2,2.8v-2.5l0,0l-2.4,1l0,0L13,99.3l3.5-5.8l2.1-3.6l0.7-1.2l0,0l1.4-2.3l3.9-6.4
						c-2.6,2.3-5,4.7-7.2,7.4L17,88.1l-2.1,3.6l0,0l-3.7,6.2l-2,3.2l-1.8,3.1l0,0c-0.1,0.1-0.1,0.3-0.2,0.4l0,0v0.1l2.4,1.4l4.6,2.7
						l1.7,1l2.5,1.5l2.5,1.5l0,0l35.3,20.9l2.4,1.4l0,0l6.2,3.7l2.1,1.3l0.2,0.1l0,0V77.3z M60.9,133.7l-2.4-1.4l-2.4-1.4
						l-32.6-19.3l-2.5-1.5l-2.5-1.4l-6.3-3.8l44-20l0,0l2.4-1.1l2.4-1.1l3.9-1.8v55L60.9,133.7z M67.1,64.1h-2.4V69l2.4-1.1l0,0
						l2.4,1.1v-4.9L67.1,64.1z"/>
					<path d="M58.5,81.3L58.5,81.3l-2.4,1v2.6l2.4-1.1l2.4-1.1l3.9-1.8v-2.6L58.5,81.3z M58.5,81.3L58.5,81.3l-2.4,1v2.6l2.4-1.1
						l2.4-1.1l3.9-1.8v-2.6L58.5,81.3z M118.7,86L118.7,86c-2.3-2.8-4.7-5.2-7.3-7.5c-1.7-1.5-3.5-2.9-5.3-4.2l3.5,5.8l0,0l6,10
						l2.1,3.6l3.8,1.7l0,0l3.8,1.7L118.7,86z M67.1,61.7h-2.4v9.9l2.4-1.1l0,0l2.4,1.1v-9.9H67.1z M69.4,73.7L67,74.8l-0.6,0.3
						l-1.7,0.8l-3.9,1.7l0,0l-2.3,1.1l0,0l-2.4,1v5.2l2.4-1.1l2.4-1.1l3.9-1.8l0,0v55l0,0l-3.9-2.3l-2.4-1.4l-2.4-1.4l-32.6-19.2
						l-2.5-1.5l-2.5-1.4l-6.3-3.8l0,0l-1.9-1.1l0.5-0.9l0,0l2.1-3.6l0,0l3.5-5.8l2.1-3.6l0.8-1.2l0,0l1.4-2.3l3.9-6.4l0,0l3.5-5.8
						c-1.8,1.3-3.6,2.7-5.3,4.2c-2.6,2.3-5,4.8-7.2,7.4l-0.1,0.1l-2.3,3.9l-7.8,12.9l0,0L5.2,103l0,0v0.1c-0.1,0.2-0.1,0.3-0.2,0.5
						l-0.8,2l0,0l1.5,0.9l0.1,0.1l1.1,0.6l6.2,3.7l2.5,1.5l2.5,1.5l38,22.5l8.6,5.1l1.7,1l0.6,0.4l0.6-0.4l1.7-1l0,0L69.4,73.7
						L69.4,73.7z M58.5,81.3L58.5,81.3l-2.4,1v2.6l2.4-1.1l2.4-1.1l3.9-1.8v-2.6L58.5,81.3z M58.5,81.3L58.5,81.3l-2.4,1v2.6
						l2.4-1.1l2.4-1.1l3.9-1.8v-2.6L58.5,81.3z"/>
					<path class="st0" d="M130.6,121.1c-0.2-1.3-0.5-2.5-0.8-3.7l-3.7,2.2l-56.7,33.5l-0.1,0.1l-2.2,1.3l-2.2-1.3l-0.1-0.1
						L6.9,118.9l-2.5-1.5c-0.1,0.4-0.2,0.7-0.3,1.1c-0.2,1-0.4,1.9-0.6,2.9c-0.1,0.3-0.1,0.5-0.1,0.8c-0.1,0.4-0.1,0.9-0.2,1.3
						s-0.1,0.6-0.1,0.9c-0.1,0.6-0.2,1.2-0.2,1.8l0,0c-0.2,2.3-0.4,4.6-0.4,6.9v4.1c0,0.4,0.1,0.8,0.1,1.2s0.1,0.8,0.1,1.1v0.4
						c0,0.3,0.1,0.6,0.1,0.9s0.1,0.6,0.1,1l0.6,3.6c0,0.2,0.1,0.4,0.1,0.6c0.4,1.9,0.8,3.9,1.4,5.8c0.1,0.3,0.2,0.5,0.2,0.8
						c0.1,0.3,0.2,0.5,0.2,0.8c0.2,0.8,0.5,1.6,0.8,2.4l0.3,0.7l0.6,1.5l0.3,0.8c0.4,1,0.8,2,1.3,3c0.3,0.8,0.7,1.5,1.1,2.2l0.6,1.1
						c0.2,0.4,0.4,0.7,0.6,1.1l0.3,0.6v0.1l1.3,2.1c0.1,0.2,0.3,0.4,0.4,0.6l0.9,1.4l0.4,0.6l0.5,0.8l0.2,0.3l0.2,0.3l0.9,1.2
						l0.3,0.5l0.7,0.9c0.1,0.2,0.2,0.4,0.4,0.5l0.6,0.7l0.5,0.6c0.2,0.2,0.3,0.4,0.5,0.6l0.5,0.6c0.6,0.7,1.3,1.4,1.9,2.1l0,0
						c0.3,0.4,0.7,0.8,1.1,1.1l1.1,1.1c0.3,0.2,0.5,0.5,0.8,0.7l0,0c1,0.9,2.1,1.9,3.1,2.7l0,0l0.1,0.1c0.2,0.2,0.4,0.4,0.7,0.5
						l0.3,0.3l0.1,0.1l0.3,0.2l0,0l0.6,0.4l0.2,0.2l1.2,0.9l0.3,0.2l0.3,0.2l0.6,0.4c0.4,0.2,0.7,0.5,1.1,0.7l0.2,0.1
						c0.4,0.2,0.7,0.4,1.1,0.7l0,0l0.1,0.1l0,0l0.1,0.1l0,0c0.6,0.4,1.2,0.7,1.8,1c0.2,0.1,0.3,0.2,0.5,0.3l0.6,0.3l0.6,0.3l0,0
						l0.5,0.3c0.2,0.1,0.3,0.2,0.5,0.3l0.2,0.1c0.9,0.4,1.8,0.9,2.6,1.3l0,0c0.2,0.1,0.5,0.2,0.7,0.3c0.2,0.1,0.5,0.2,0.7,0.3
						l0.2,0.1l0.5,0.2c0.2,0.1,0.5,0.2,0.7,0.3h0.1c0.9,0.3,1.7,0.6,2.6,0.9l0,0c0.8,0.3,1.6,0.5,2.4,0.7l2.1,0.6
						c1.9,0.5,3.8,0.8,5.8,1.1h0.2c2.1,0.3,4.1,0.5,6.2,0.5h2.1c4.8,0,9.6-0.6,14.3-1.7c0.3-0.1,0.6-0.2,0.9-0.2h0.2
						c0.4-0.1,0.7-0.2,1-0.3c0.8-0.2,1.6-0.5,2.4-0.7l0,0c0.5-0.2,0.9-0.3,1.4-0.5c0.2-0.1,0.5-0.2,0.7-0.3s0.5-0.2,0.7-0.3l0,0
						c0.9-0.4,1.8-0.7,2.7-1.1c2.6-1.2,5.2-2.5,7.7-4c0.4-0.2,0.7-0.5,1.1-0.7l0.2-0.1l0.2-0.1l0.2-0.1l0.3-0.2l0.2-0.2l0,0
						c0.3-0.2,0.5-0.3,0.8-0.5l0.7-0.5c0.2-0.1,0.4-0.2,0.5-0.4c0.2-0.2,0.5-0.4,0.7-0.5l0.3-0.2c0.3-0.2,0.5-0.4,0.8-0.6l0.1-0.1
						c0.3-0.3,0.7-0.5,1-0.8l0.2-0.1c1.7-1.4,3.3-2.8,4.9-4.4l0.6-0.6c0.2-0.2,0.4-0.4,0.6-0.7l0,0l0.7-0.7l0.6-0.7
						c0.4-0.5,0.8-0.9,1.2-1.4l0,0c0.4-0.5,0.8-1,1.2-1.4l0,0l1.2-1.5c0.4-0.5,0.8-1,1.1-1.5c0.7-1,1.5-2.1,2.1-3.1
						c1.9-2.9,3.5-6,5-9.1c0.3-0.6,0.5-1.1,0.8-1.7s0.5-1.2,0.7-1.8c0.2-0.6,0.4-1.2,0.7-1.8l0.9-2.7c0.2-0.6,0.4-1.2,0.5-1.8
						c0.2-0.6,0.3-1.2,0.5-1.8c0.2-0.6,0.3-1.3,0.4-1.9c1.1-4.7,1.6-9.6,1.6-14.4C131.5,129.2,131.4,125.1,130.6,121.1z M4.9,136.5
						v-3.7c0-0.9,0-1.7,0.1-2.6c0.1-1.4,0.2-2.8,0.3-4.3c0.2-1.7,0.4-3.4,0.8-5.1l1.2,0.7l57.3,33.9c-0.1,0.3-0.1,0.7-0.2,1
						c-0.1,0.7-0.3,1.4-0.4,2.1s-0.3,1.4-0.5,2c-0.3,1-0.5,2-0.8,3l-0.3,0.9l-0.3,0.9l-0.6,1.8c-0.3,0.9-0.6,1.8-1,2.6l0,0v0.1
						l-0.6,1.5c-0.2,0.4-0.3,0.7-0.5,1.1l-0.3,0.6l-0.3,0.6c-0.2,0.3-0.3,0.6-0.5,0.9L58,175c-0.1,0.2-0.2,0.4-0.4,0.6
						c-0.5,0.9-1.1,1.7-1.6,2.5c-0.4,0.6-0.8,1.2-1.3,1.7c-0.1,0.2-0.3,0.3-0.4,0.5c-0.4,0.5-0.8,1-1.3,1.4
						c-0.6,0.6-1.2,1.1-1.9,1.6c-0.5,0.4-1,0.7-1.5,1l0,0l-0.4,0.2c-0.2,0.2-0.5,0.3-0.8,0.4c-0.1,0.1-0.3,0.1-0.4,0.2
						c-0.5,0.3-1,0.5-1.6,0.7c-0.2,0.1-0.5,0.2-0.7,0.2l-1.2,0.3c-0.4,0.1-0.9,0.2-1.3,0.2c-0.4,0.1-0.8,0.1-1.2,0.1
						c-3.5,0.2-6.9-0.4-10.1-1.7c-1-0.4-2-0.8-2.9-1.3C15,172,6.3,155.2,4.9,137C5,137.1,5,136.8,4.9,136.5z M64.8,198h-2.2l-1-0.1
						h-0.5l-0.5-0.1l-0.5-0.2h-0.2c-0.2,0-0.5-0.1-0.7-0.1h-0.6c-0.3,0-0.7-0.1-1-0.2c-0.3-0.1-0.6-0.1-0.9-0.2s-0.7-0.1-1-0.2h-0.1
						c-0.3-0.1-0.7-0.1-1-0.2l-0.5-0.1l-0.8-0.2c-0.6-0.2-1.3-0.3-2-0.5l-1.3-0.4l-1.1-0.3c-0.9-0.3-1.8-0.6-2.7-1l-0.6-0.2
						c-0.6-0.2-1.2-0.5-1.7-0.7l-0.2-0.1l0,0l-0.6-0.3c-0.2-0.1-0.5-0.2-0.7-0.3c-0.3-0.1-0.6-0.2-0.8-0.4l-0.5-0.3l0,0
						c1.6,0,3.2-0.2,4.8-0.6h0.2l0.4-0.1l0.9-0.3l0.9-0.3l0,0c0.7-0.2,1.3-0.5,1.9-0.8l1.2-0.6c1.3-0.7,2.5-1.6,3.6-2.5
						c0.4-0.3,0.7-0.7,1.1-1l0.5-0.5l1.1-1.1c0.9-1.1,1.8-2.2,2.6-3.3c0.3-0.3,0.5-0.7,0.7-1.1c1-1.6,1.9-3.3,2.7-5
						c0.4-0.8,0.8-1.6,1.1-2.5v-0.1c0.1-0.3,0.3-0.7,0.4-1s0.3-0.7,0.4-1c0.1-0.1,0.1-0.3,0.2-0.4c0.1-0.2,0.2-0.4,0.2-0.6
						c0.2-0.7,0.5-1.4,0.7-2.1c0.1-0.4,0.2-0.7,0.3-1.1c0-0.1,0.1-0.2,0.1-0.3l0.1,0.4l0.3,0.9c0.1,0.3,0.2,0.7,0.3,1.1v0.1l0.3,1
						c0,0.1,0.1,0.2,0.1,0.3c0.1,0.3,0.2,0.5,0.3,0.8l0.6,1.5c0.1,0.2,0.2,0.4,0.2,0.6c0.2,0.6,0.5,1.1,0.7,1.7l0,0
						c0,0.1,0,0.1,0.1,0.1c0,0,0,0,0,0c0.4,0.9,0.8,1.7,1.2,2.5l0,0c0.3,0.5,0.6,1.1,0.9,1.6c1.5,2.7,3.3,5.1,5.4,7.3l0.5,0.5
						c0.3,0.4,0.7,0.7,1.1,1c0.2,0.1,0.3,0.3,0.5,0.4c0.3,0.3,0.7,0.5,1,0.8c0.7,0.5,1.4,0.9,2.1,1.4c0.2,0.1,0.3,0.2,0.5,0.3l0,0
						c0.4,0.2,0.8,0.4,1.3,0.6c0.4,0.2,0.9,0.4,1.3,0.5l1.8,0.6c0.3,0.1,0.6,0.2,0.9,0.2c0.3,0.1,0.6,0.1,0.9,0.2
						c1.1,0.2,2.3,0.3,3.4,0.3h-0.1l-1.2,0.6l-0.5,0.2c-0.2,0.1-0.5,0.2-0.7,0.3h-0.1c-0.9,0.4-1.7,0.7-2.6,1.1s-1.8,0.7-2.7,1
						l-1.1,0.3c-0.4,0.1-0.8,0.3-1.2,0.4c-0.8,0.2-1.4,0.4-2.1,0.6c-0.2,0.1-0.5,0.1-0.8,0.2l-0.4,0.1c-0.4,0.1-0.7,0.2-1.1,0.2
						h-0.1l-0.9,0.2h-0.2l-0.7,0.1h-0.2l-0.9,0.1h-0.1l-0.4,0.1l-1.3,0.2c-0.3,0-0.5,0.1-0.9,0.1s-0.7,0.1-1,0.1h-6.4L64.8,198z
						 M129.3,133c0,1.3,0,2.6-0.1,3.9c0,0.5-0.1,1.1-0.1,1.6c-0.1,0.9-0.2,1.9-0.3,2.8c0,0.3-0.1,0.6-0.1,0.8l-0.3,1.8
						c-0.1,0.5-0.2,0.9-0.3,1.4c0,0.1,0,0.3-0.1,0.4c-0.1,0.3-0.1,0.6-0.2,0.9l-0.9,3.6c-0.2,0.6-0.3,1.1-0.5,1.7v0.1
						c-0.2,0.6-0.3,1.1-0.5,1.7s-0.5,1.3-0.7,2c-0.1,0.2-0.2,0.5-0.3,0.7c-0.9,2.3-1.9,4.5-3,6.7c-0.1,0.3-0.3,0.5-0.4,0.8
						s-0.3,0.5-0.4,0.8c-0.9,1.6-1.8,3.2-2.8,4.7c-0.2,0.3-0.3,0.5-0.5,0.8s-0.3,0.5-0.5,0.8c-0.6,0.8-1.1,1.6-1.7,2.3
						c-0.2,0.2-0.3,0.4-0.5,0.6c-0.4,0.5-0.8,1-1.1,1.4c-0.5,0.7-1.1,1.3-1.7,1.9c-0.2,0.2-0.3,0.4-0.5,0.5
						c-0.7,0.8-1.4,1.6-2.2,2.3l-1.3,1.3c-1.1,1-2.1,2-3.3,2.9l0,0c-0.8,0.4-1.6,0.8-2.5,1.1c-0.2,0.1-0.4,0.2-0.6,0.2
						c-0.7,0.3-1.4,0.5-2.1,0.7l-0.4,0.1l-0.5,0.1c-0.7,0.2-1.4,0.3-2.1,0.5c-0.2,0-0.5,0.1-0.7,0.1c-0.5,0.1-0.9,0.1-1.4,0.2h-0.5
						c-1.5,0.1-3,0-4.5-0.4l-2.1-0.6c-0.6-0.2-1.1-0.4-1.6-0.7l-0.6-0.3c-0.5-0.2-0.9-0.5-1.3-0.8c-0.2-0.1-0.4-0.3-0.6-0.4
						l-1.2-0.9c-0.4-0.3-0.8-0.7-1.2-1.1c-0.9-1-1.8-2-2.6-3c-0.3-0.4-0.6-0.8-0.8-1.2l-0.4-0.6l-0.3-0.5c-0.3-0.4-0.5-0.9-0.8-1.4
						l-0.3-0.6c-0.3-0.6-0.6-1.2-1-1.9s-0.7-1.5-1-2.2l0,0c-0.1-0.2-0.2-0.3-0.2-0.5c-0.2-0.6-0.4-1.2-0.7-1.7l-0.6-1.8l-0.3-0.9
						l-0.3-0.9c-0.1-0.2-0.1-0.4-0.2-0.6s-0.2-0.7-0.3-1s-0.2-0.7-0.3-1s-0.2-0.7-0.3-1c-0.1-0.3-0.2-0.7-0.2-1c0-0.4-0.2-0.7-0.2-1
						c-0.1-0.3-0.2-0.7-0.2-1c-0.1-0.3-0.1-0.7-0.2-1s-0.1-0.7-0.2-1s-0.1-0.3-0.1-0.5l54.6-32.3l3.7-2.2l0.3-0.2
						c0.2,1.2,0.4,2.5,0.6,3.8C129.1,127.5,129.3,130.3,129.3,133L129.3,133z"/>
					<path d="M67.5,156.9l-0.1-0.4l0,0c-0.1-0.3-0.1-0.5-0.1-0.8l0,0v-0.2l0,0v-0.2c0-0.3-0.1-0.5-0.1-0.8l0,0
						c0,0.2-0.1,0.4-0.1,0.6s0,0.3-0.1,0.4c0,0.1,0,0.3-0.1,0.4c0,0.2-0.1,0.4-0.1,0.7c0,0.1-0.1,0.3-0.1,0.4l0.4,0.2L67.5,156.9
						L67.5,156.9z M67.5,156.9c0-0.1,0-0.3-0.1-0.4l0,0c-0.1-0.3-0.1-0.5-0.1-0.8l0,0v-0.4c0-0.3-0.1-0.5-0.1-0.8l0,0
						c0,0.2-0.1,0.4-0.1,0.6s0,0.3-0.1,0.4c0,0.1,0,0.3-0.1,0.4c0,0.2-0.1,0.4-0.1,0.7c0,0.1-0.1,0.3-0.1,0.4l0.4,0.2L67.5,156.9
						L67.5,156.9z M67.5,156.9c0-0.1,0-0.3-0.1-0.4l0,0c-0.1-0.3-0.1-0.5-0.1-0.8l0,0v-0.4c0-0.3-0.1-0.5-0.1-0.8l0,0
						c0,0.2-0.1,0.4-0.1,0.6s0,0.3-0.1,0.4c0,0.1,0,0.3-0.1,0.4c0,0.2-0.1,0.4-0.1,0.7c0,0.1-0.1,0.3-0.1,0.4l0.4,0.2L67.5,156.9
						L67.5,156.9z M67.5,156.9c0-0.1,0-0.3-0.1-0.4l0,0c-0.1-0.3-0.1-0.5-0.1-0.8l0,0v-0.4c0-0.3-0.1-0.5-0.1-0.8l0,0
						c0,0.2-0.1,0.4-0.1,0.6s0,0.3-0.1,0.4c0,0.1,0,0.3-0.1,0.4c0,0.2-0.1,0.4-0.1,0.7c0,0.1-0.1,0.3-0.1,0.4l0.4,0.2L67.5,156.9
						L67.5,156.9z M67.5,156.9c0-0.1,0-0.3-0.1-0.4l0,0c-0.1-0.3-0.1-0.5-0.1-0.8l0,0v-0.4c0-0.3-0.1-0.5-0.1-0.8l0,0
						c0,0.2-0.1,0.4-0.1,0.6s0,0.3-0.1,0.4c0,0.1,0,0.3-0.1,0.4c0,0.2-0.1,0.4-0.1,0.7c0,0.1-0.1,0.3-0.1,0.4l0.4,0.2L67.5,156.9
						L67.5,156.9z M67.5,156.9c0-0.1,0-0.3-0.1-0.4l0,0c-0.1-0.3-0.1-0.5-0.1-0.8l0,0v-0.4c0-0.3-0.1-0.5-0.1-0.8l0,0
						c0,0.2-0.1,0.4-0.1,0.6s0,0.3-0.1,0.4c0,0.1,0,0.3-0.1,0.4c0,0.2-0.1,0.4-0.1,0.7c0,0.1-0.1,0.3-0.1,0.4l0.4,0.2L67.5,156.9
						L67.5,156.9z M67.5,156.9c0-0.1,0-0.3-0.1-0.4l0,0c-0.1-0.3-0.1-0.5-0.1-0.8l0,0v-0.4c0-0.3-0.1-0.5-0.1-0.8l0,0
						c0,0.2-0.1,0.4-0.1,0.6s0,0.3-0.1,0.4c0,0.1,0,0.3-0.1,0.4c0,0.2-0.1,0.4-0.1,0.7c0,0.1-0.1,0.3-0.1,0.4l0.4,0.2L67.5,156.9
						L67.5,156.9z M67.5,156.9c0-0.1,0-0.3-0.1-0.4l0,0c-0.1-0.3-0.1-0.5-0.1-0.8l0,0v-0.4c0-0.3-0.1-0.5-0.1-0.8l0,0
						c0,0.2-0.1,0.4-0.1,0.6s0,0.3-0.1,0.4c0,0.1,0,0.3-0.1,0.4c0,0.2-0.1,0.4-0.1,0.7c0,0.1-0.1,0.3-0.1,0.4l0.4,0.2L67.5,156.9
						L67.5,156.9z M67.5,156.9c0-0.1,0-0.3-0.1-0.4l0,0c-0.1-0.3-0.1-0.5-0.1-0.8l0,0v-0.4c0-0.3-0.1-0.5-0.1-0.8l0,0
						c0,0.2-0.1,0.4-0.1,0.6s0,0.3-0.1,0.4c0,0.1,0,0.3-0.1,0.4c0,0.2-0.1,0.4-0.1,0.7c0,0.1-0.1,0.3-0.1,0.4l0.4,0.2L67.5,156.9
						L67.5,156.9z M67.5,156.9c0-0.1,0-0.3-0.1-0.4l0,0c-0.1-0.3-0.1-0.5-0.1-0.8l0,0v-0.4c0-0.3-0.1-0.5-0.1-0.8l0,0
						c0,0.2-0.1,0.4-0.1,0.6s0,0.3-0.1,0.4c0,0.1,0,0.3-0.1,0.4c0,0.2-0.1,0.4-0.1,0.7c0,0.1-0.1,0.3-0.1,0.4l0.4,0.2L67.5,156.9
						L67.5,156.9z M67.5,156.9c0-0.1,0-0.3-0.1-0.4l0,0c-0.1-0.3-0.1-0.5-0.1-0.8l0,0v-0.4c0-0.3-0.1-0.5-0.1-0.8l0,0
						c0,0.2-0.1,0.4-0.1,0.6s0,0.3-0.1,0.4c0,0.1,0,0.3-0.1,0.4c0,0.2-0.1,0.4-0.1,0.7c0,0.1-0.1,0.3-0.1,0.4l0.4,0.2L67.5,156.9
						L67.5,156.9z M67.5,156.9c0-0.1,0-0.3-0.1-0.4l0,0c-0.1-0.3-0.1-0.5-0.1-0.8l0,0v-0.4c0-0.3-0.1-0.5-0.1-0.8l0,0
						c0,0.2-0.1,0.4-0.1,0.6s0,0.3-0.1,0.4c0,0.1,0,0.3-0.1,0.4c0,0.2-0.1,0.4-0.1,0.7c0,0.1-0.1,0.3-0.1,0.4l0.4,0.2L67.5,156.9
						L67.5,156.9z M67.5,156.9c0-0.1,0-0.3-0.1-0.4l0,0c-0.1-0.3-0.1-0.5-0.1-0.8l0,0v-0.4c0-0.3-0.1-0.5-0.1-0.8l0,0
						c0,0.2-0.1,0.4-0.1,0.6s0,0.3-0.1,0.4c0,0.1,0,0.3-0.1,0.4c0,0.2-0.1,0.4-0.1,0.7c0,0.1-0.1,0.3-0.1,0.4l0.4,0.2L67.5,156.9
						L67.5,156.9z M67.5,156.9c0-0.1,0-0.3-0.1-0.4l0,0c-0.1-0.3-0.1-0.5-0.1-0.8l0,0v-0.4c0-0.3-0.1-0.5-0.1-0.8l0,0
						c0,0.2-0.1,0.4-0.1,0.6s0,0.3-0.1,0.4c0,0.1,0,0.3-0.1,0.4c0,0.2-0.1,0.4-0.1,0.7c0,0.1-0.1,0.3-0.1,0.4l0.4,0.2L67.5,156.9
						L67.5,156.9z M67.5,156.9c0-0.1,0-0.3-0.1-0.4l0,0c-0.1-0.3-0.1-0.5-0.1-0.8l0,0v-0.4c0-0.3-0.1-0.5-0.1-0.8l0,0
						c0,0.2-0.1,0.4-0.1,0.6s0,0.3-0.1,0.4c0,0.1,0,0.3-0.1,0.4c0,0.2-0.1,0.4-0.1,0.7c0,0.1-0.1,0.3-0.1,0.4l0.4,0.2L67.5,156.9
						L67.5,156.9z M67.4,156.5L67.4,156.5c-0.1-0.3-0.1-0.5-0.1-0.8l0,0v-0.4c0-0.3-0.1-0.5-0.1-0.8l0,0c0,0.2-0.1,0.4-0.1,0.6
						s0,0.3-0.1,0.4c0,0.1,0,0.3-0.1,0.4c0,0.2-0.1,0.4-0.1,0.7c0,0.1-0.1,0.3-0.1,0.4l0.4,0.2l0.4-0.2l0,0
						C67.5,156.8,67.5,156.6,67.4,156.5L67.4,156.5z M132.3,117.6c-0.1-0.3-0.1-0.6-0.2-0.8l-0.3-1.1l-2.2-0.9l-2.5,1.5l-2.5,1.5
						l-55.7,32.9l-1.8,1.1l-1.8-1.1l-55.7-33l-2.5-1.5l-2.6-1.5l-2.2,0.9L2,116.7c0,0.1-0.1,0.3-0.1,0.4C0.6,122.3,0,127.6,0,132.9
						v1c0,0.7,0,1.4,0.1,2.1v1.6c0,0.7,0.1,1.3,0.2,2c0.1,0.6,0.1,1.1,0.2,1.7c0,0.3,0.1,0.6,0.1,0.8l0.6,3.6l0.3,1.5
						c0.4,1.7,0.8,3.4,1.3,5c0.2,0.6,0.3,1.1,0.5,1.7c1.1,3.4,2.4,6.8,4,10c0.3,0.5,0.5,1.1,0.8,1.6l0.6,1.2
						c0.2,0.4,0.5,0.9,0.7,1.3s0.6,1.1,0.9,1.6l0.4,0.7c0.4,0.7,0.9,1.4,1.4,2.1s1,1.4,1.4,2.1c0.3,0.5,0.7,0.9,1,1.4
						c0.4,0.6,0.9,1.2,1.4,1.7l0,0l0.2,0.2l0.5,0.7c0.4,0.4,0.7,0.9,1.1,1.3l0.6,0.6c0.4,0.4,0.8,0.8,1.1,1.2l0.6,0.6l0.6,0.6
						l0.6,0.6l0.6,0.6l0.7,0.7l0.5,0.5c0.2,0.2,0.5,0.4,0.7,0.6c0.3,0.2,0.5,0.4,0.7,0.7L25,187l0.4,0.3l0.2,0.2l0.3,0.3l0.2,0.2
						c0.2,0.1,0.3,0.3,0.5,0.4l0.5,0.4l0.1,0.1h0.1l0.8,0.6l0.3,0.2l0.4,0.3l0.9,0.6l1,0.7l0.2,0.1l0.1,0.1c0.1,0.1,0.2,0.1,0.3,0.2
						l0.3,0.2c0.8,0.6,1.7,1.1,2.5,1.6l0.5,0.3l0.3,0.2c7.2,4.2,15.1,7,23.3,8.2c0.6,0.1,1.3,0.2,1.9,0.2l0.5,0.1h0.6
						c0.2,0,0.4,0,0.6,0.1h1.6c0.4,0,0.9,0.1,1.3,0.1H67c5,0,10-0.6,14.8-1.8l0,0c0.6-0.1,1.2-0.3,1.8-0.5l3-0.9l0.9-0.3
						c0.7-0.2,1.4-0.5,2-0.7l0,0c0.9-0.4,1.9-0.8,2.8-1.2c4.3-1.9,8.3-4.2,12.1-6.9c0.3-0.3,0.7-0.5,1-0.7l0.2-0.2l0.2-0.2
						c0.2-0.2,0.5-0.3,0.7-0.5s0.4-0.3,0.6-0.5l0.5-0.4l0,0l0.2-0.2l0,0l0.2-0.1c1.7-1.4,3.4-2.9,5-4.5l1.4-1.4
						c1.3-1.4,2.5-2.8,3.7-4.2c10.3-12.6,15.9-28.3,16-44.6C134.1,127.7,133.5,122.6,132.3,117.6L132.3,117.6z M129.3,132.9
						L129.3,132.9c0,1.3,0,2.6-0.1,3.9c0,0.5-0.1,1.1-0.1,1.6c-0.1,0.9-0.2,1.9-0.3,2.8c0,0.3-0.1,0.6-0.1,0.8l-0.3,1.8
						c-0.1,0.5-0.2,0.9-0.3,1.4c0,0.1,0,0.3-0.1,0.4c-0.1,0.3-0.1,0.6-0.2,0.9l-0.9,3.6c-0.2,0.6-0.3,1.1-0.5,1.7v0.1
						c-0.2,0.6-0.3,1.1-0.5,1.7s-0.5,1.3-0.7,2c-0.1,0.2-0.2,0.5-0.3,0.7c-0.9,2.3-1.9,4.5-3,6.7c-0.1,0.3-0.3,0.5-0.4,0.8
						s-0.3,0.5-0.4,0.8c-0.9,1.6-1.8,3.2-2.8,4.7c-0.2,0.3-0.3,0.5-0.5,0.8s-0.3,0.5-0.5,0.8c-0.6,0.8-1.1,1.6-1.7,2.3
						c-0.2,0.2-0.3,0.4-0.5,0.6c-0.4,0.5-0.8,1-1.1,1.4c-0.5,0.7-1.1,1.3-1.7,1.9c-0.2,0.2-0.3,0.4-0.5,0.5
						c-0.7,0.8-1.4,1.6-2.2,2.3l-1.3,1.3c-1.1,1-2.1,2-3.3,2.9l0,0l-0.2,0.2c-2.1,1.7-4.3,3.3-6.6,4.7l0,0c-1.7,1-3.4,2-5.1,2.9
						c-1.9,0.9-3.8,1.8-5.7,2.5l-0.9,0.3l-1.3,0.5l0,0c-0.8,0.3-1.5,0.5-2.3,0.7l-1.1,0.3c-0.4,0.1-0.7,0.2-1,0.3
						c-4.5,1.1-9.1,1.7-13.7,1.7h-2.2c-2-0.1-3.9-0.2-5.9-0.5l0,0c-2.2-0.3-4.4-0.8-6.5-1.3l-0.2-0.1l-0.8-0.2
						c-0.8-0.2-1.6-0.5-2.5-0.8c-0.7-0.2-1.3-0.5-2-0.7l-0.6-0.2l0,0c-0.4-0.2-0.9-0.3-1.3-0.5l-0.5-0.2l-0.8-0.3
						c-0.9-0.4-1.8-0.8-2.6-1.2c-1.8-0.9-3.5-1.8-5.2-2.9l0,0C18.1,178,6.6,158.8,5.1,137.7c0-0.3,0-0.6-0.1-0.9v-3.7
						c0-0.9,0-1.7,0.1-2.6c0.1-1.4,0.2-2.8,0.3-4.3c0.2-1.7,0.4-3.4,0.8-5.1l1.2,0.7l57.3,33.9l0,0l0.4,0.3l1.7,1l0.4,0.2l0.4-0.2
						l1.7-1l0.4-0.3l0,0l54.6-32.3l3.7-2.2l0.3-0.2c0.2,1.2,0.4,2.5,0.6,3.8C129.2,127.5,129.3,130.2,129.3,132.9z M67.5,156.9
						c0-0.1,0-0.3-0.1-0.4l0,0c-0.1-0.3-0.1-0.5-0.1-0.8l0,0v-0.4c0-0.3-0.1-0.5-0.1-0.8l0,0c0,0.2-0.1,0.4-0.1,0.6s0,0.3-0.1,0.4
						c0,0.1,0,0.3-0.1,0.4c0,0.2-0.1,0.4-0.1,0.7c0,0.1-0.1,0.3-0.1,0.4l0.4,0.2L67.5,156.9L67.5,156.9z M67.5,156.9
						c0-0.1,0-0.3-0.1-0.4l0,0c-0.1-0.3-0.1-0.5-0.1-0.8l0,0v-0.4c0-0.3-0.1-0.5-0.1-0.8l0,0c0,0.2-0.1,0.4-0.1,0.6s0,0.3-0.1,0.4
						c0,0.1,0,0.3-0.1,0.4c0,0.2-0.1,0.4-0.1,0.7c0,0.1-0.1,0.3-0.1,0.4l0.4,0.2L67.5,156.9L67.5,156.9z M67.5,156.9
						c0-0.1,0-0.3-0.1-0.4l0,0c-0.1-0.3-0.1-0.5-0.1-0.8l0,0v-0.4c0-0.3-0.1-0.5-0.1-0.8l0,0c0,0.2-0.1,0.4-0.1,0.6s0,0.3-0.1,0.4
						c0,0.1,0,0.3-0.1,0.4c0,0.2-0.1,0.4-0.1,0.7c0,0.1-0.1,0.3-0.1,0.4l0.4,0.2L67.5,156.9L67.5,156.9z M67.5,156.9
						c0-0.1,0-0.3-0.1-0.4l0,0c-0.1-0.3-0.1-0.5-0.1-0.8l0,0v-0.4c0-0.3-0.1-0.5-0.1-0.8l0,0c0,0.2-0.1,0.4-0.1,0.6s0,0.3-0.1,0.4
						c0,0.1,0,0.3-0.1,0.4c0,0.2-0.1,0.4-0.1,0.7c0,0.1-0.1,0.3-0.1,0.4l0.4,0.2L67.5,156.9L67.5,156.9z M67.5,156.9
						c0-0.1,0-0.3-0.1-0.4l0,0c-0.1-0.3-0.1-0.5-0.1-0.8l0,0v-0.4c0-0.3-0.1-0.5-0.1-0.8l0,0c0,0.2-0.1,0.4-0.1,0.6s0,0.3-0.1,0.4
						c0,0.1,0,0.3-0.1,0.4c0,0.2-0.1,0.4-0.1,0.7c0,0.1-0.1,0.3-0.1,0.4l0.4,0.2L67.5,156.9L67.5,156.9z M67.5,156.9
						c0-0.1,0-0.3-0.1-0.4l0,0c-0.1-0.3-0.1-0.5-0.1-0.8l0,0v-0.4c0-0.3-0.1-0.5-0.1-0.8l0,0c0,0.2-0.1,0.4-0.1,0.6s0,0.3-0.1,0.4
						c0,0.1,0,0.3-0.1,0.4c0,0.2-0.1,0.4-0.1,0.7c0,0.1-0.1,0.3-0.1,0.4l0.4,0.2L67.5,156.9L67.5,156.9z M67.5,156.9
						c0-0.1,0-0.3-0.1-0.4l0,0c-0.1-0.3-0.1-0.5-0.1-0.8l0,0v-0.4c0-0.3-0.1-0.5-0.1-0.8l0,0c0,0.2-0.1,0.4-0.1,0.6s0,0.3-0.1,0.4
						c0,0.1,0,0.3-0.1,0.4c0,0.2-0.1,0.4-0.1,0.7c0,0.1-0.1,0.3-0.1,0.4l0.4,0.2L67.5,156.9L67.5,156.9z M67.5,156.9
						c0-0.1,0-0.3-0.1-0.4l0,0c-0.1-0.3-0.1-0.5-0.1-0.8l0,0v-0.4c0-0.3-0.1-0.5-0.1-0.8l0,0c0,0.2-0.1,0.4-0.1,0.6s0,0.3-0.1,0.4
						c0,0.1,0,0.3-0.1,0.4c0,0.2-0.1,0.4-0.1,0.7c0,0.1-0.1,0.3-0.1,0.4l0.4,0.2L67.5,156.9L67.5,156.9z M67.5,156.9
						c0-0.1,0-0.3-0.1-0.4l0,0c-0.1-0.3-0.1-0.5-0.1-0.8l0,0v-0.4c0-0.3-0.1-0.5-0.1-0.8l0,0c0,0.2-0.1,0.4-0.1,0.6s0,0.3-0.1,0.4
						c0,0.1,0,0.3-0.1,0.4c0,0.2-0.1,0.4-0.1,0.7c0,0.1-0.1,0.3-0.1,0.4l0.4,0.2L67.5,156.9L67.5,156.9z M67.5,156.9
						c0-0.1,0-0.3-0.1-0.4l0,0c-0.1-0.3-0.1-0.5-0.1-0.8l0,0v-0.4c0-0.3-0.1-0.5-0.1-0.8l0,0c0,0.2-0.1,0.4-0.1,0.6s0,0.3-0.1,0.4
						c0,0.1,0,0.3-0.1,0.4c0,0.2-0.1,0.4-0.1,0.7c0,0.1-0.1,0.3-0.1,0.4l0.4,0.2L67.5,156.9L67.5,156.9z M67.5,156.9
						c0-0.1,0-0.3-0.1-0.4l0,0c-0.1-0.3-0.1-0.5-0.1-0.8l0,0v-0.4c0-0.3-0.1-0.5-0.1-0.8l0,0c0,0.2-0.1,0.4-0.1,0.6s0,0.3-0.1,0.4
						c0,0.1,0,0.3-0.1,0.4c0,0.2-0.1,0.4-0.1,0.7c0,0.1-0.1,0.3-0.1,0.4l0.4,0.2L67.5,156.9L67.5,156.9z M67.5,156.9
						c0-0.1,0-0.3-0.1-0.4l0,0c-0.1-0.3-0.1-0.5-0.1-0.8l0,0v-0.4c0-0.3-0.1-0.5-0.1-0.8l0,0c0,0.2-0.1,0.4-0.1,0.6s0,0.3-0.1,0.4
						c0,0.1,0,0.3-0.1,0.4c0,0.2-0.1,0.4-0.1,0.7c0,0.1-0.1,0.3-0.1,0.4l0.4,0.2L67.5,156.9L67.5,156.9z M67.5,156.9
						c0-0.1,0-0.3-0.1-0.4l0,0c-0.1-0.3-0.1-0.5-0.1-0.8l0,0v-0.4c0-0.3-0.1-0.5-0.1-0.8l0,0c0,0.2-0.1,0.4-0.1,0.6s0,0.3-0.1,0.4
						c0,0.1,0,0.3-0.1,0.4c0,0.2-0.1,0.4-0.1,0.7c0,0.1-0.1,0.3-0.1,0.4l0.4,0.2L67.5,156.9L67.5,156.9z M67.5,156.9
						c0-0.1,0-0.3-0.1-0.4l0,0c-0.1-0.3-0.1-0.5-0.1-0.8l0,0v-0.4c0-0.3-0.1-0.5-0.1-0.8l0,0c0,0.2-0.1,0.4-0.1,0.6s0,0.3-0.1,0.4
						c0,0.1,0,0.3-0.1,0.4c0,0.2-0.1,0.4-0.1,0.7c0,0.1-0.1,0.3-0.1,0.4l0.4,0.2L67.5,156.9L67.5,156.9z M67.5,156.9l-0.1-0.4l0,0
						c-0.1-0.3-0.1-0.5-0.1-0.8l0,0v-0.4c0-0.3-0.1-0.5-0.1-0.8l0,0c0,0.2-0.1,0.4-0.1,0.6s0,0.3-0.1,0.4c0,0.1,0,0.3-0.1,0.4
						c0,0.2-0.1,0.4-0.1,0.7c0,0.1-0.1,0.3-0.1,0.4l0.4,0.2L67.5,156.9L67.5,156.9z"/>
					<polygon points="67.1,67.9 64.7,69 64.7,66.9 					"/>
					<polygon class="st0" points="67.1,77.3 67.1,140.2 66.8,140 64.7,138.8 58.5,135.1 58.5,132.3 60.9,133.7 64.7,136 64.7,81 
						60.9,82.8 58.5,83.9 58.5,81.2 58.5,81.2 64.7,78.4 65.8,78 					"/>
					<path d="M67.1,74.8l-0.6,0.3l-1.7,0.8l-3.9,1.7l0,0l-2.4,1.1l0,0l-2.4,1.1l0,0V85l2.4-1.1l2.4-1.1l0,0l3.9-1.7v55l-3.9-2.3l0,0
						l-2.4-1.4l-2.4-1.4v5.5l8.6,5.1l0,0l1.7,1L67,143l0,0l0.6-0.4l1.7-1V73.7L67.1,74.8z"/>
					<path class="st0" d="M69.4,81v10.1l0,0V81z M69.4,81v10.1l0,0V81z M69.4,81v10.1l0,0V81z M69.4,81v10.1l0,0V81z M69.4,81v10.1
						l0,0V81z M69.4,81v10.1l0,0V81z M69.4,81v10.1l0,0V81z M69.4,81v10.1l0,0V81z M69.4,81v10.1l0,0V81z M69.4,81v10.1l0,0V81z
						 M69.4,81v10.1l0,0V81z M69.4,81v10.1l0,0V81z M69.4,81v10.1l0,0V81z M69.4,81v10.1l0,0V81z M69.4,81v10.1l0,0V81z M69.4,78.4
						L69.4,78.4L67,77.3l0,0v62.8l0.3-0.2l2.1-1.2l0,0l43.9-26l2.5-1.5l2.5-1.5l6.3-3.7l2.5-1.5L69.4,78.4z M115.7,108.7l-2.5,1.5
						l-2.5,1.5l-41.3,24.4v-55L122,105L115.7,108.7z M69.4,81v10.1l0,0V81z M69.4,81v10.1l0,0V81z M69.4,81v10.1l0,0V81z M69.4,81
						v10.1l0,0V81z M69.4,81v10.1l0,0V81z M69.4,81v10.1l0,0V81z M69.4,81v10.1l0,0V81z M69.4,81v10.1l0,0V81z M69.4,81v10.1l0,0V81
						z M69.4,81v10.1l0,0V81z M69.4,81v10.1l0,0V81z M69.4,81v10.1l0,0V81z M69.4,81v10.1l0,0V81z M69.4,81v10.1l0,0V81z M69.4,81
						v10.1l0,0V81z"/>
					<path d="M67.1,79.9L67.1,79.9l-2.4-1.1V91l0,0l2.4-1l0,0l2.4,1V80.9L67.1,79.9z M128.8,102.8l-3.8-1.7l0,0l-3.8-1.7l0,0
						L69.4,75.9l0,0l-4.7-2.1v67.8l1.7,1L67,143l0,0l0.6-0.4l1.7-1l0,0l46.6-27.6l2.5-1.5l2.5-1.5l6.2-3.7l3.1-1.8L128.8,102.8z
						 M113.2,110.1l-2.5,1.5L69.4,136l0,0V81l0,0l52.6,23.9l-6.3,3.7L113.2,110.1z"/>
					<path class="st0" d="M67.1,70.5L67.1,70.5v4.2l2.4-1.1v-2.1L67.1,70.5z M67.1,70.5L67.1,70.5v4.2l2.4-1.1v-2.1L67.1,70.5z
						 M67.1,70.5L67.1,70.5v4.2l2.4-1.1v-2.1L67.1,70.5z M67.1,70.5L67.1,70.5v4.2l2.4-1.1v-2.1L67.1,70.5z M67.1,70.5L67.1,70.5
						v4.2l2.4-1.1v-2.1L67.1,70.5z M67.1,70.5L67.1,70.5v4.2l2.4-1.1v-2.1L67.1,70.5z M67.1,70.5L67.1,70.5v4.2l2.4-1.1v-2.1
						L67.1,70.5z M67.1,70.5L67.1,70.5v4.2l2.4-1.1v-2.1L67.1,70.5z M67.1,70.5L67.1,70.5v4.2l2.4-1.1v-2.1L67.1,70.5z M67.1,70.5
						L67.1,70.5v4.2l2.4-1.1v-2.1L67.1,70.5z M67.1,70.5L67.1,70.5v4.2l2.4-1.1v-2.1L67.1,70.5z M67.1,70.5L67.1,70.5v4.2l2.4-1.1
						v-2.1L67.1,70.5z M67.1,70.5L67.1,70.5v4.2l2.4-1.1v-2.1L67.1,70.5z M67.1,70.5L67.1,70.5v4.2l2.4-1.1v-2.1L67.1,70.5z
						 M125,101.1L125,101.1l-3.5-5.8l0,0l-2.1-3.6l-2.6-4.3l-5.4-8.9L69.5,9l-2.4-3.9v72.4l0,0l2.4,1.1l0,0l57.7,26.2L125,101.1z
						 M69.4,73.7V13.4L106,74.1l3.5,5.8l0,0l6,10l2.1,3.6l3.5,5.8L69.3,75.8C69.3,75.8,69.4,73.7,69.4,73.7z M67.1,70.5L67.1,70.5
						v4.2l2.4-1.1v-2.1L67.1,70.5z M67.1,70.5L67.1,70.5v4.2l2.4-1.1v-2.1L67.1,70.5z M67.1,70.5L67.1,70.5v4.2l2.4-1.1v-2.1
						L67.1,70.5z M67.1,70.5L67.1,70.5v4.2l2.4-1.1v-2.1L67.1,70.5z M67.1,70.5L67.1,70.5v4.2l2.4-1.1v-2.1L67.1,70.5z M67.1,70.5
						L67.1,70.5v4.2l2.4-1.1v-2.1L67.1,70.5z M67.1,70.5L67.1,70.5v4.2l2.4-1.1v-2.1L67.1,70.5z M67.1,70.5L67.1,70.5v4.2l2.4-1.1
						v-2.1L67.1,70.5z M67.1,70.5L67.1,70.5v4.2l2.4-1.1v-2.1L67.1,70.5z M67.1,70.5L67.1,70.5v4.2l2.4-1.1v-2.1L67.1,70.5z
						 M67.1,70.5L67.1,70.5v4.2l2.4-1.1v-2.1L67.1,70.5z M67.1,70.5L67.1,70.5v4.2l2.4-1.1v-2.1L67.1,70.5z M67.1,70.5L67.1,70.5
						v4.2l2.4-1.1v-2.1L67.1,70.5z M67.1,70.5L67.1,70.5v4.2l2.4-1.1v-2.1L67.1,70.5z"/>
					<path d="M67.1,67.9L67.1,67.9L64.7,69v6.8l1.7-0.8l0.6-0.3l2.4-1.1v-4.7L67.1,67.9z M67.1,67.9L67.1,67.9L64.7,69v6.8l1.7-0.8
						l0.6-0.3l2.4-1.1v-4.7L67.1,67.9z M67.1,70.5L67.1,70.5v4.2l2.4-1.1v-2.1L67.1,70.5z M67.1,70.5L67.1,70.5v4.2l2.4-1.1v-2.1
						L67.1,70.5z M67.1,70.5L67.1,70.5v4.2l2.4-1.1v-2.1L67.1,70.5z M67.1,70.5L67.1,70.5v4.2l2.4-1.1v-2.1L67.1,70.5z M67.1,70.5
						L67.1,70.5v4.2l2.4-1.1v-2.1L67.1,70.5z M67.1,70.5L67.1,70.5v4.2l2.4-1.1v-2.1L67.1,70.5z M67.1,70.5L67.1,70.5v4.2l2.4-1.1
						v-2.1L67.1,70.5z M67.1,70.5L67.1,70.5v4.2l2.4-1.1v-2.1L67.1,70.5z M67.1,70.5L67.1,70.5v4.2l2.4-1.1v-2.1L67.1,70.5z
						 M67.1,70.5L67.1,70.5v4.2l2.4-1.1v-2.1L67.1,70.5z M67.1,70.5L67.1,70.5v4.2l2.4-1.1v-2.1L67.1,70.5z M67.1,70.5L67.1,70.5
						v4.2l2.4-1.1v-2.1L67.1,70.5z M67.1,70.5L67.1,70.5v4.2l2.4-1.1v-2.1L67.1,70.5z M67.1,70.5L67.1,70.5v4.2l2.4-1.1v-2.1
						L67.1,70.5z M128.8,102.8L118.7,86L69.5,4.4l-2.4-3.9l-2.4,3.9V79l2.4,1.1l0,0l2.4,1.1l0,0l52.6,23.9l2.6,1.2l2.6,1.2l3.1-1.8
						L128.8,102.8z M69.4,13.4L106,74.1l3.5,5.8l0,0l6,10l2.1,3.6l3.5,5.8l0,0L69.3,75.8l0,0L69.4,13.4z M67.1,70.5L67.1,70.5v4.2
						l2.4-1.1v-2.1L67.1,70.5z M67.1,70.5L67.1,70.5v4.2l2.4-1.1v-2.1L67.1,70.5z M67.1,70.5L67.1,70.5v4.2l2.4-1.1v-2.1L67.1,70.5z
						 M67.1,70.5L67.1,70.5v4.2l2.4-1.1v-2.1L67.1,70.5z M67.1,70.5L67.1,70.5v4.2l2.4-1.1v-2.1L67.1,70.5z M67.1,70.5L67.1,70.5
						v4.2l2.4-1.1v-2.1L67.1,70.5z M67.1,70.5L67.1,70.5v4.2l2.4-1.1v-2.1L67.1,70.5z M67.1,70.5L67.1,70.5v4.2l2.4-1.1v-2.1
						L67.1,70.5z M67.1,70.5L67.1,70.5v4.2l2.4-1.1v-2.1L67.1,70.5z M67.1,70.5L67.1,70.5v4.2l2.4-1.1v-2.1L67.1,70.5z M67.1,70.5
						L67.1,70.5v4.2l2.4-1.1v-2.1L67.1,70.5z M67.1,70.5L67.1,70.5v4.2l2.4-1.1v-2.1L67.1,70.5z M67.1,70.5L67.1,70.5v4.2l2.4-1.1
						v-2.1L67.1,70.5z M67.1,70.5L67.1,70.5l-2.4,1.1v4.2l1.7-0.8l0.6-0.3l2.4-1.1v-2.1L67.1,70.5z M67.1,68L67.1,68l-2.4,1.1v6.8
						l1.7-0.8l0.6-0.3l2.4-1.1V69L67.1,68z"/>
					<path class="st0" d="M65.8,78l-1,0.5l-6.2,2.8v-2.6l-2.4,1.1l0,0L13,99.4l3.5-5.8l2.1-3.6l0,0l-3.8,1.7l0,0l-3.7,6.2l-2,3.2
						l-1.8,3.1l0,0c-0.1,0.1-0.1,0.3-0.2,0.4l0,0l2.4,1.4l0,0l6.3,3.7l2.5,1.5l2.5,1.5l35.3,21l0,0l2.4,1.4l6.2,3.7l2.1,1.3l0.2,0.1
						V77.4L65.8,78z M64.7,136l-3.9-2.3l-2.4-1.4l-2.4-1.4l-32.5-19.3l-2.5-1.5l-2.5-1.4l-6.3-3.8l44-20l0,0l2.4-1.1l2.4-1.1
						l3.9-1.8L64.7,136z"/>
					<path d="M58.5,81.3L58.5,81.3l-2.4,1l0,0v2.6l2.4-1.1l2.4-1.1l3.9-1.8v-2.6L58.5,81.3z M58.5,81.3L58.5,81.3l-2.4,1l0,0v2.6
						l2.4-1.1l2.4-1.1l3.9-1.8v-2.6L58.5,81.3z M67.1,74.8l-0.6,0.3l-1.7,0.8l-3.9,1.8l0,0l-2.4,1l0,0l-2.4,1l0,0v5.2l2.4-1.1
						l2.4-1.1l3.9-1.8v55l-3.9-2.3l-4.7-2.8l0,0l-32.7-19.2l-2.5-1.5l-2.5-1.4l-6.3-3.8l0,0l-1.9-1.1l0,0l0.5-0.9l0,0l2.1-3.6l0,0
						l3.5-5.8l0,0l2.1-3.6l0.7-1.2l0,0l1.4-2.3l-3.8,1.7L13,89.8l0,0l-7.8,12.9l0,0L5,103l0,0l-1.4,2.3l0.4,0.2l1.5,0.9l0.1,0.1
						l1.1,0.7l6.2,3.7l2.5,1.5l2.5,1.5l38,22.5l0,0l8.6,5.1l1.7,1l0.6,0.4l0,0l0.6-0.4l1.7-1V73.7L67.1,74.8z M58.5,81.3L58.5,81.3
						l-2.4,1l0,0v2.6l2.4-1.1l2.4-1.1l3.9-1.8v-2.6L58.5,81.3z M58.5,81.3L58.5,81.3l-2.4,1l0,0v2.6l2.4-1.1l2.4-1.1l3.9-1.8v-2.6
						L58.5,81.3z"/>
					<path class="st0" d="M65.8,78l-1,0.5l-6.2,2.8l0,0l-2.4,1.1l0,0L10.8,103l0,0l-3.7,1.7l0,0l2.4,1.4l6.3,3.7l2.5,1.5l2.5,1.5
						l35.4,21l0,0l2.4,1.4l6.2,3.7l2.1,1.3l0.2,0.1V77.5L65.8,78z M56.2,84.9L56.2,84.9l2.4-1l2.4-1.1l3.9-1.8v55l-3.9-2.3l-2.4-1.4
						l-2.4-1.4l-32.7-19.3l-2.5-1.5l-2.5-1.4l-6.3-3.8L56.2,84.9z"/>
					<path d="M67.1,74.8l-0.6,0.3l-1.7,0.8l-3.9,1.7l0,0l-2.4,1.1l0,0l-2.4,1.1l0,0L12.9,99.4l0,0l-3.8,1.7l0,0l-3,1.4l-0.8,0.4l0,0
						l-0.2,0.3l0,0l-1.4,2.3l0,0l0.4,0.2l0,0l1.6,1l1.1,0.6L13,111l2.5,1.5L18,114l38,22.5l8.6,5.1l0,0l1.7,1l0.6,0.4l0,0l0.6-0.4
						l1.7-1V73.7L67.1,74.8z M12.1,104.9l44-20l0,0l2.4-1.1l0,0l2.4-1.1l0,0l3.9-1.7v55l-3.9-2.3l-4.7-2.8l-32.7-19.3l-2.5-1.5
						l-2.5-1.5C18.5,108.6,12.1,104.9,12.1,104.9z"/>
					<path class="st0" d="M64.7,66.5l-0.4,0.2L64,66.5H64.7z"/>
					<path class="st0" d="M64.7,71.6v4.2l1.7-0.8l0.6-0.3v-4.2L64.7,71.6z M60.9,77.6L60.9,77.6l-2.4,1.1l0,0l-2.4,1.1l0,0
						L12.9,99.4l3.5-5.8l0,0l-3.5,5.8l0,0l-2.1,3.6l45.4-20.6l0,0l2.4-1.1l0,0l6.2-2.8v-2.6L60.9,77.6z M64.7,71.6v4.2l1.7-0.8
						l0.6-0.3v-4.2L64.7,71.6z M60.9,77.6L60.9,77.6l-2.4,1.1l0,0l-2.4,1.1l0,0L12.9,99.4l3.5-5.8l0,0l-3.5,5.8l0,0l-2.1,3.6
						l45.4-20.6l0,0l2.4-1.1l0,0l6.2-2.8v-2.6L60.9,77.6z M64.7,71.6v4.2l1.7-0.8l0.6-0.3v-4.2L64.7,71.6z M60.9,77.6L60.9,77.6
						l-2.4,1.1l0,0l-2.4,1.1l0,0L12.9,99.4l3.5-5.8l0,0l-3.5,5.8l0,0l-2.1,3.6l45.4-20.6l0,0l2.4-1.1l0,0l6.2-2.8v-2.6L60.9,77.6z
						 M64.7,71.6v4.2l1.7-0.8l0.6-0.3v-4.2L64.7,71.6z M60.9,77.6L60.9,77.6l-2.4,1.1l0,0l-2.4,1.1l0,0L12.9,99.4l3.5-5.8l0,0
						l-3.5,5.8l0,0l-2.1,3.6l45.4-20.6l0,0l2.4-1.1l0,0l6.2-2.8v-2.6L60.9,77.6z M64.7,71.6v4.2l1.7-0.8l0.6-0.3v-4.2L64.7,71.6z
						 M60.9,77.6L60.9,77.6l-2.4,1.1l0,0l-2.4,1.1l0,0L12.9,99.4l3.5-5.8l0,0l-3.5,5.8l0,0l-2.1,3.6l45.4-20.6l0,0l2.4-1.1l0,0
						l6.2-2.8v-2.6L60.9,77.6z M64.7,71.6v4.2l1.7-0.8l0.6-0.3v-4.2L64.7,71.6z M60.9,77.6L60.9,77.6l-2.4,1.1l0,0l-2.4,1.1l0,0
						L12.9,99.4l3.5-5.8l0,0l-3.5,5.8l0,0l-2.1,3.6l45.4-20.6l0,0l2.4-1.1l0,0l6.2-2.8v-2.6L60.9,77.6z M64.7,71.6v4.2l1.7-0.8
						l0.6-0.3v-4.2L64.7,71.6z M60.9,77.6L60.9,77.6l-2.4,1.1l0,0l-2.4,1.1l0,0L12.9,99.4l3.5-5.8l0,0l-3.5,5.8l0,0l-2.1,3.6
						l45.4-20.6l0,0l2.4-1.1l0,0l6.2-2.8v-2.6L60.9,77.6z M64.7,71.6v4.2l1.7-0.8l0.6-0.3v-4.2L64.7,71.6z M60.9,77.6L60.9,77.6
						l-2.4,1.1l0,0l-2.4,1.1l0,0L12.9,99.4l3.5-5.8l0,0l-3.5,5.8l0,0l-2.1,3.6l45.4-20.6l0,0l2.4-1.1l0,0l6.2-2.8v-2.6L60.9,77.6z
						 M64.7,71.6v4.2l1.7-0.8l0.6-0.3v-4.2L64.7,71.6z M60.9,77.6L60.9,77.6l-2.4,1.1l0,0l-2.4,1.1l0,0L12.9,99.4l3.5-5.8l0,0
						l-3.5,5.8l0,0l-2.1,3.6l45.4-20.6l0,0l2.4-1.1l0,0l6.2-2.8v-2.6L60.9,77.6z M64.7,71.6v4.2l1.7-0.8l0.6-0.3v-4.2L64.7,71.6z
						 M60.9,77.6L60.9,77.6l-2.4,1.1l0,0l-2.4,1.1l0,0L12.9,99.4l3.5-5.8l0,0l-3.5,5.8l0,0l-2.1,3.6l45.4-20.6l0,0l2.4-1.1l0,0
						l6.2-2.8v-2.6L60.9,77.6z M64.7,71.6v4.2l1.7-0.8l0.6-0.3v-4.2L64.7,71.6z M60.9,77.6L60.9,77.6l-2.4,1.1l0,0l-2.4,1.1l0,0
						L12.9,99.4l3.5-5.8l0,0l-3.5,5.8l0,0l-2.1,3.6l45.4-20.6l0,0l2.4-1.1l0,0l6.2-2.8v-2.6L60.9,77.6z M64.7,71.6v4.2l1.7-0.8
						l0.6-0.3v-4.2L64.7,71.6z M60.9,77.6L60.9,77.6l-2.4,1.1l0,0l-2.4,1.1l0,0L12.9,99.4l3.5-5.8l0,0l-3.5,5.8l0,0l-2.1,3.6
						l45.4-20.6l0,0l2.4-1.1l0,0l6.2-2.8v-2.6L60.9,77.6z M64.7,71.6v4.2l1.7-0.8l0.6-0.3v-4.2L64.7,71.6z M60.9,77.6L60.9,77.6
						l-2.4,1.1l0,0l-2.4,1.1l0,0L12.9,99.4l3.5-5.8l0,0l-3.5,5.8l0,0l-2.1,3.6l45.4-20.6l0,0l2.4-1.1l0,0l6.2-2.8v-2.6L60.9,77.6z
						 M64.7,71.6v4.2l1.7-0.8l0.6-0.3v-4.2L64.7,71.6z M60.9,77.6l-2.4,1.1l0,0l-2.4,1.1l0,0L12.9,99.4l3.5-5.8l0,0l-3.5,5.8l0,0
						l-2.1,3.6l45.4-20.6l0,0l2.4-1.1l0,0l6.2-2.8v-2.6C64.8,75.9,60.9,77.6,60.9,77.6z M64.7,8.9L22.8,78.4l-5.4,8.9L17,88
						l-2.1,3.6l0,0L9.2,101l0,0l-1.9,3.1l0,0L7,104.5h0.1l3.7-1.7l0,0l45.4-20.6l0,0l2.4-1.1l0,0l6.2-2.8l1-0.5l1.3-0.6V4.8
						L64.7,8.9z M64.7,75.8l-3.9,1.7l0,0l-2.3,1.2l0,0l-2.4,1.1l0,0L12.9,99.4l3.5-5.8l2.1-3.6l0.7-1.2l0,0l1.4-2.3l3.9-6.4l0,0
						l3.5-5.8l36.6-60.7L64.7,75.8z M60.9,77.6L60.9,77.6l-2.4,1.1l0,0l-2.4,1.1l0,0L12.9,99.4l3.5-5.8l0,0l-3.5,5.8l0,0l-2.1,3.6
						l45.4-20.6l0,0l2.4-1.1l0,0l6.2-2.8v-2.6L60.9,77.6z M64.7,71.6v4.2l1.7-0.8l0.6-0.3v-4.2L64.7,71.6z M60.9,77.6L60.9,77.6
						l-2.4,1.1l0,0l-2.4,1.1l0,0L12.9,99.4l3.5-5.8l0,0l-3.5,5.8l0,0l-2.1,3.6l45.4-20.6l0,0l2.4-1.1l0,0l6.2-2.8v-2.6L60.9,77.6z
						 M64.7,71.6v4.2l1.7-0.8l0.6-0.3v-4.2L64.7,71.6z M60.9,77.6L60.9,77.6l-2.4,1.1l0,0l-2.4,1.1l0,0L12.9,99.4l3.5-5.8l0,0
						l-3.5,5.8l0,0l-2.1,3.6l45.4-20.6l0,0l2.4-1.1l0,0l6.2-2.8v-2.6L60.9,77.6z M64.7,71.6v4.2l1.7-0.8l0.6-0.3v-4.2L64.7,71.6z
						 M60.9,77.6L60.9,77.6l-2.4,1.1l0,0l-2.4,1.1l0,0L12.9,99.4l3.5-5.8l0,0l-3.5,5.8l0,0l-2.1,3.6l45.4-20.6l0,0l2.4-1.1l0,0
						l6.2-2.8v-2.6L60.9,77.6z M64.7,71.6v4.2l1.7-0.8l0.6-0.3v-4.2L64.7,71.6z M60.9,77.6L60.9,77.6l-2.4,1.1l0,0l-2.4,1.1l0,0
						L12.9,99.4l3.5-5.8l0,0l-3.5,5.8l0,0l-2.1,3.6l45.4-20.6l0,0l2.4-1.1l0,0l6.2-2.8v-2.6L60.9,77.6z M64.7,71.6v4.2l1.7-0.8
						l0.6-0.3v-4.2L64.7,71.6z M60.9,77.6L60.9,77.6l-2.4,1.1l0,0l-2.4,1.1l0,0L12.9,99.4l3.5-5.8l0,0l-3.5,5.8l0,0l-2.1,3.6
						l45.4-20.6l0,0l2.4-1.1l0,0l6.2-2.8v-2.6L60.9,77.6z M64.7,71.6v4.2l1.7-0.8l0.6-0.3v-4.2L64.7,71.6z M60.9,77.6L60.9,77.6
						l-2.4,1.1l0,0l-2.4,1.1l0,0L12.9,99.4l3.5-5.8l0,0l-3.5,5.8l0,0l-2.1,3.6l45.4-20.6l0,0l2.4-1.1l0,0l6.2-2.8v-2.6L60.9,77.6z
						 M64.7,71.6v4.2l1.7-0.8l0.6-0.3v-4.2L64.7,71.6z M60.9,77.6L60.9,77.6l-2.4,1.1l0,0l-2.4,1.1l0,0L12.9,99.4l3.5-5.8l0,0
						l-3.5,5.8l0,0l-2.1,3.6l45.4-20.6l0,0l2.4-1.1l0,0l6.2-2.8v-2.6L60.9,77.6z M64.7,71.6v4.2l1.7-0.8l0.6-0.3v-4.2L64.7,71.6z
						 M60.9,77.6L60.9,77.6l-2.4,1.1l0,0l-2.4,1.1l0,0L12.9,99.4l3.5-5.8l0,0l-3.5,5.8l0,0l-2.1,3.6l45.4-20.6l0,0l2.4-1.1l0,0
						l6.2-2.8v-2.6L60.9,77.6z M64.7,71.6v4.2l1.7-0.8l0.6-0.3v-4.2L64.7,71.6z M60.9,77.6L60.9,77.6l-2.4,1.1l0,0l-2.4,1.1l0,0
						L12.9,99.4l3.5-5.8l0,0l-3.5,5.8l0,0l-2.1,3.6l45.4-20.6l0,0l2.4-1.1l0,0l6.2-2.8v-2.6L60.9,77.6z M64.7,71.6v4.2l1.7-0.8
						l0.6-0.3v-4.2L64.7,71.6z M60.9,77.6L60.9,77.6l-2.4,1.1l0,0l-2.4,1.1l0,0L12.9,99.4l3.5-5.8l0,0l-3.5,5.8l0,0l-2.1,3.6
						l45.4-20.6l0,0l2.4-1.1l0,0l6.2-2.8v-2.6L60.9,77.6z M64.7,71.6v4.2l1.7-0.8l0.6-0.3v-4.2L64.7,71.6z M60.9,77.6L60.9,77.6
						l-2.4,1.1l0,0l-2.4,1.1l0,0L12.9,99.4l3.5-5.8l0,0l-3.5,5.8l0,0l-2.1,3.6l45.4-20.6l0,0l2.4-1.1l0,0l6.2-2.8v-2.6L60.9,77.6z
						 M64.7,71.6v4.2l1.7-0.8l0.6-0.3v-4.2L64.7,71.6z M60.9,77.6L60.9,77.6l-2.4,1.1l0,0l-2.4,1.1l0,0L12.9,99.4l3.5-5.8l0,0
						l-3.5,5.8l0,0l-2.1,3.6l45.4-20.6l0,0l2.4-1.1l0,0l6.2-2.8v-2.6L60.9,77.6z M64.7,71.6v4.2l1.7-0.8l0.6-0.3v-4.2L64.7,71.6z"/>
					<path d="M60.9,77.6L60.9,77.6l3.9-1.8l0,0L60.9,77.6z M58.5,81.2v-2.5l0,0l-2.4,1.1l0,0v2.6l0,0L58.5,81.2L58.5,81.2l6.2-2.8
						l0,0L58.5,81.2z M60.9,77.6L60.9,77.6l3.9-1.8l0,0L60.9,77.6z M58.5,81.2v-2.5l0,0l-2.4,1.1l0,0v2.6l0,0L58.5,81.2L58.5,81.2
						l6.2-2.8l0,0L58.5,81.2z M64.7,71.6v4.2l1.7-0.8l0.6-0.3v-4.2L64.7,71.6z M60.9,77.6L60.9,77.6l-2.4,1.1l0,0l-2.4,1.1l0,0
						L12.9,99.4l3.5-5.8l0,0l-3.5,5.8l0,0l-2.1,3.6l45.4-20.6l0,0l2.4-1.1l0,0l6.2-2.8v-2.6L60.9,77.6z M64.7,71.6v4.2l1.7-0.8
						l0.6-0.3v-4.2L64.7,71.6z M60.9,77.6L60.9,77.6l-2.4,1.1l0,0l-2.4,1.1l0,0L12.9,99.4l3.5-5.8l0,0l-3.5,5.8l0,0l-2.1,3.6
						l45.4-20.6l0,0l2.4-1.1l0,0l6.2-2.8v-2.6L60.9,77.6z M64.7,71.6v4.2l1.7-0.8l0.6-0.3v-4.2L64.7,71.6z M60.9,77.6L60.9,77.6
						l-2.4,1.1l0,0l-2.4,1.1l0,0L12.9,99.4l3.5-5.8l0,0l-3.5,5.8l0,0l-2.1,3.6l45.4-20.6l0,0l2.4-1.1l0,0l6.2-2.8v-2.6L60.9,77.6z
						 M64.7,71.6v4.2l1.7-0.8l0.6-0.3v-4.2L64.7,71.6z M60.9,77.6L60.9,77.6l-2.4,1.1l0,0l-2.4,1.1l0,0L12.9,99.4l3.5-5.8l0,0
						l-3.5,5.8l0,0l-2.1,3.6l45.4-20.6l0,0l2.4-1.1l0,0l6.2-2.8v-2.6L60.9,77.6z M64.7,71.6v4.2l1.7-0.8l0.6-0.3v-4.2L64.7,71.6z
						 M60.9,77.6L60.9,77.6l-2.4,1.1l0,0l-2.4,1.1l0,0L12.9,99.4l3.5-5.8l0,0l-3.5,5.8l0,0l-2.1,3.6l45.4-20.6l0,0l2.4-1.1l0,0
						l6.2-2.8v-2.6L60.9,77.6z M64.7,71.6v4.2l1.7-0.8l0.6-0.3v-4.2L64.7,71.6z M60.9,77.6L60.9,77.6l-2.4,1.1l0,0l-2.4,1.1l0,0
						L12.9,99.4l3.5-5.8l0,0l-3.5,5.8l0,0l-2.1,3.6l45.4-20.6l0,0l2.4-1.1l0,0l6.2-2.8v-2.6L60.9,77.6z M64.7,71.6v4.2l1.7-0.8
						l0.6-0.3v-4.2L64.7,71.6z M60.9,77.6L60.9,77.6l-2.4,1.1l0,0l-2.4,1.1l0,0L12.9,99.4l3.5-5.8l0,0l-3.5,5.8l0,0l-2.1,3.6
						l45.4-20.6l0,0l2.4-1.1l0,0l6.2-2.8v-2.6L60.9,77.6z M64.7,71.6v4.2l1.7-0.8l0.6-0.3v-4.2L64.7,71.6z M60.9,77.6L60.9,77.6
						l-2.4,1.1l0,0l-2.4,1.1l0,0L12.9,99.4l3.5-5.8l0,0l-3.5,5.8l0,0l-2.1,3.6l45.4-20.6l0,0l2.4-1.1l0,0l6.2-2.8v-2.6L60.9,77.6z
						 M64.7,71.6v4.2l1.7-0.8l0.6-0.3v-4.2L64.7,71.6z M60.9,77.6L60.9,77.6l-2.4,1.1l0,0l-2.4,1.1l0,0L12.9,99.4l3.5-5.8l0,0
						l-3.5,5.8l0,0l-2.1,3.6l45.4-20.6l0,0l2.4-1.1l0,0l6.2-2.8v-2.6L60.9,77.6z M64.7,71.6v4.2l1.7-0.8l0.6-0.3v-4.2L64.7,71.6z
						 M60.9,77.6L60.9,77.6l-2.4,1.1l0,0l-2.4,1.1l0,0L12.9,99.4l3.5-5.8l0,0l-3.5,5.8l0,0l-2.1,3.6l45.4-20.6l0,0l2.4-1.1l0,0
						l6.2-2.8v-2.6L60.9,77.6z M64.7,71.6v4.2l1.7-0.8l0.6-0.3v-4.2L64.7,71.6z M60.9,77.6L60.9,77.6l-2.4,1.1l0,0l-2.4,1.1l0,0
						L12.9,99.4l3.5-5.8l0,0l-3.5,5.8l0,0l-2.1,3.6l45.4-20.6l0,0l2.4-1.1l0,0l6.2-2.8v-2.6L60.9,77.6z M64.7,71.6v4.2l1.7-0.8
						l0.6-0.3v-4.2L64.7,71.6z M60.9,77.6L60.9,77.6l-2.4,1.1l0,0l-2.4,1.1l0,0L12.9,99.4l3.5-5.8l0,0l-3.5,5.8l0,0l-2.1,3.6
						l45.4-20.6l0,0l2.4-1.1l0,0l6.2-2.8v-2.6L60.9,77.6z M64.7,71.6v4.2l1.7-0.8l0.6-0.3v-4.2L64.7,71.6z M60.9,77.6L60.9,77.6
						l-2.4,1.1l0,0l-2.4,1.1l0,0L12.9,99.4l3.5-5.8l0,0l-3.5,5.8l0,0l-2.1,3.6l45.4-20.6l0,0l2.4-1.1l0,0l6.2-2.8v-2.6L60.9,77.6z
						 M64.7,71.6v4.2l1.7-0.8l0.6-0.3v-4.2L64.7,71.6z M60.9,77.6l-2.4,1.1l0,0l-2.4,1.1l0,0L12.9,99.4l3.5-5.8l0,0l-3.5,5.8l0,0
						l-2.1,3.6l45.4-20.6l0,0l2.4-1.1l0,0l6.2-2.8v-2.6C64.8,75.9,60.9,77.6,60.9,77.6z M67.1,0.4l-2.4,3.9L15.5,86l-2.3,3.9
						l-7.8,12.9l-0.2,0.3l-1.4,2.3l0,0l0.4,0.2l0,0l1.6,1l1.1,0.6l0,0l2.6-1.2l0,0l2.7-1.2l0,0l44-20l0,0l2.4-1.1l2.4-1.1l3.9-1.7
						l0,0l2.4-1.1l0,0l2.4-1.1V4.1L67.1,0.4z M64.7,75.8l-3.9,1.7l0,0l-2.3,1.2l0,0l-2.4,1.1l0,0L12.9,99.4l3.5-5.8l2.1-3.6l0.7-1.2
						l0,0l1.4-2.3l3.9-6.4l0,0l3.5-5.8l36.6-60.7L64.7,75.8z M60.9,77.6L60.9,77.6l-2.4,1.1l0,0l-2.4,1.1l0,0L12.9,99.4l3.5-5.8l0,0
						l-3.5,5.8l0,0l-2.1,3.6l45.4-20.6l0,0l2.4-1.1l0,0l6.2-2.8v-2.6L60.9,77.6z M64.7,71.6v4.2l1.7-0.8l0.6-0.3v-4.2L64.7,71.6z
						 M60.9,77.6L60.9,77.6l-2.4,1.1l0,0l-2.4,1.1l0,0L12.9,99.4l3.5-5.8l0,0l-3.5,5.8l0,0l-2.1,3.6l45.4-20.6l0,0l2.4-1.1l0,0
						l6.2-2.8v-2.6L60.9,77.6z M64.7,71.6v4.2l1.7-0.8l0.6-0.3v-4.2L64.7,71.6z M60.9,77.6L60.9,77.6l-2.4,1.1l0,0l-2.4,1.1l0,0
						L12.9,99.4l3.5-5.8l0,0l-3.5,5.8l0,0l-2.1,3.6l45.4-20.6l0,0l2.4-1.1l0,0l6.2-2.8v-2.6L60.9,77.6z M64.7,71.6v4.2l1.7-0.8
						l0.6-0.3v-4.2L64.7,71.6z M60.9,77.6L60.9,77.6l-2.4,1.1l0,0l-2.4,1.1l0,0L12.9,99.4l3.5-5.8l0,0l-3.5,5.8l0,0l-2.1,3.6
						l45.4-20.6l0,0l2.4-1.1l0,0l6.2-2.8v-2.6L60.9,77.6z M64.7,71.6v4.2l1.7-0.8l0.6-0.3v-4.2L64.7,71.6z M60.9,77.6L60.9,77.6
						l-2.4,1.1l0,0l-2.4,1.1l0,0L12.9,99.4l3.5-5.8l0,0l-3.5,5.8l0,0l-2.1,3.6l45.4-20.6l0,0l2.4-1.1l0,0l6.2-2.8v-2.6L60.9,77.6z
						 M64.7,71.6v4.2l1.7-0.8l0.6-0.3v-4.2L64.7,71.6z M60.9,77.6L60.9,77.6l-2.4,1.1l0,0l-2.4,1.1l0,0L12.9,99.4l3.5-5.8l0,0
						l-3.5,5.8l0,0l-2.1,3.6l45.4-20.6l0,0l2.4-1.1l0,0l6.2-2.8v-2.6L60.9,77.6z M64.7,71.6v4.2l1.7-0.8l0.6-0.3v-4.2L64.7,71.6z
						 M60.9,77.6L60.9,77.6l-2.4,1.1l0,0l-2.4,1.1l0,0L12.9,99.4l3.5-5.8l0,0l-3.5,5.8l0,0l-2.1,3.6l45.4-20.6l0,0l2.4-1.1l0,0
						l6.2-2.8v-2.6L60.9,77.6z M64.7,71.6v4.2l1.7-0.8l0.6-0.3v-4.2L64.7,71.6z M60.9,77.6L60.9,77.6l-2.4,1.1l0,0l-2.4,1.1l0,0
						L12.9,99.4l3.5-5.8l0,0l-3.5,5.8l0,0l-2.1,3.6l45.4-20.6l0,0l2.4-1.1l0,0l6.2-2.8v-2.6L60.9,77.6z M64.7,71.6v4.2l1.7-0.8
						l0.6-0.3v-4.2L64.7,71.6z M60.9,77.6L60.9,77.6l-2.4,1.1l0,0l-2.4,1.1l0,0L12.9,99.4l3.5-5.8l0,0l-3.5,5.8l0,0l-2.1,3.6
						l45.4-20.6l0,0l2.4-1.1l0,0l6.2-2.8v-2.6L60.9,77.6z M64.7,71.6v4.2l1.7-0.8l0.6-0.3v-4.2L64.7,71.6z M60.9,77.6L60.9,77.6
						l-2.4,1.1l0,0l-2.4,1.1l0,0L12.9,99.4l3.5-5.8l0,0l-3.5,5.8l0,0l-2.1,3.6l45.4-20.6l0,0l2.4-1.1l0,0l6.2-2.8v-2.6L60.9,77.6z
						 M64.7,71.6v4.2l1.7-0.8l0.6-0.3v-4.2L64.7,71.6z M60.9,77.6L60.9,77.6l-2.4,1.1l0,0l-2.4,1.1l0,0L12.9,99.4l3.5-5.8l0,0
						l-3.5,5.8l0,0l-2.1,3.6l45.4-20.6l0,0l2.4-1.1l0,0l6.2-2.8v-2.6L60.9,77.6z M64.7,71.6v4.2l1.7-0.8l0.6-0.3v-4.2L64.7,71.6z
						 M60.9,77.6L60.9,77.6l-2.4,1.1l0,0l-2.4,1.1l0,0L12.9,99.4l3.5-5.8l0,0l-3.5,5.8l0,0l-2.1,3.6l45.4-20.6l0,0l2.4-1.1l0,0
						l6.2-2.8v-2.6L60.9,77.6z M64.7,71.6v4.2l1.7-0.8l0.6-0.3v-4.2L64.7,71.6z M60.9,77.6L60.9,77.6l-2.4,1.1l0,0l-2.4,1.1l0,0
						L12.9,99.4l3.5-5.8l0,0l-3.5,5.8l0,0l-2.1,3.6l45.4-20.6l0,0l2.4-1.1l0,0l6.2-2.8v-2.6L60.9,77.6z M64.7,71.6v4.2l1.7-0.8
						l0.6-0.3v-4.2L64.7,71.6z M58.5,81.2v-2.5l0,0l-2.4,1.1l0,0v2.6l0,0L58.5,81.2L58.5,81.2l6.2-2.8l0,0L58.5,81.2z M60.9,77.6
						L60.9,77.6l3.9-1.8l0,0L60.9,77.6z M58.5,81.2v-2.5l0,0l-2.4,1.1l0,0v2.6l0,0L58.5,81.2L58.5,81.2l6.2-2.8l0,0L58.5,81.2z
						 M60.9,77.6L60.9,77.6l3.9-1.8l0,0L60.9,77.6z"/>
					<path class="st0" d="M42.8,195.2c0.9,0.4,1.8,0.8,2.7,1.1C44.6,196,43.7,195.6,42.8,195.2z"/>
					<path d="M46.3,194.2L46.3,194.2l-0.9,2.2l0,0l-0.8,2.2l0,0l-0.3-0.1c-0.4-0.1-0.8-0.3-1.1-0.5c-0.5-0.2-0.9-0.4-1.4-0.6l1-2.1
						l0,0l1-2.1l0,0l0.2,0.1c0.6,0.2,1.1,0.5,1.7,0.7L46.3,194.2L46.3,194.2z"/>
					<path class="st0" d="M45.5,196.4c0.9,0.4,1.8,0.7,2.8,1C47.3,197,46.4,196.7,45.5,196.4z"/>
					<path d="M47.5,199.6c-1-0.3-1.9-0.7-2.9-1l1.7-4.4c0.9,0.3,1.8,0.7,2.7,1L47.5,199.6z"/>
					<path class="st0" d="M50.6,198.1l2.1,0.6C52.1,198.5,51.4,198.3,50.6,198.1z"/>
					<path d="M52.2,200.9l-1.2-0.3l-1-0.3l0,0l1.3-4.5l1,0.3c0.3,0.1,0.7,0.2,1.1,0.3L52.2,200.9z"/>
					<path class="st0" d="M64.9,153.1l-0.1-0.1L6.9,118.8l-2.5-1.5c-0.1,0.4-0.2,0.7-0.3,1.1c-0.2,1-0.4,1.9-0.6,2.9
						c-0.1,0.3-0.1,0.5-0.1,0.8c-0.1,0.4-0.1,0.9-0.2,1.3s-0.1,0.6-0.1,0.9c-0.1,0.6-0.2,1.2-0.2,1.8l0,0c-0.2,2.3-0.4,4.6-0.4,6.9
						v4.1c0,0.4,0.1,0.8,0.1,1.2s0.1,0.8,0.1,1.1v0.4c0,0.3,0.1,0.6,0.1,0.9s0.1,0.6,0.1,1l0.6,3.6c0,0.2,0.1,0.4,0.1,0.6
						c0.4,1.9,0.8,3.9,1.4,5.8c0.1,0.3,0.2,0.5,0.2,0.8c0.1,0.3,0.2,0.5,0.2,0.8c0.2,0.8,0.5,1.6,0.8,2.4l0.3,0.7l0.6,1.5l0.3,0.8
						c0.4,1,0.8,2,1.3,3c0.2,0.4,0.3,0.7,0.5,1.1c0.2,0.3,0.4,0.7,0.5,1.1l0.6,1.1c0.2,0.4,0.4,0.7,0.6,1.1l0.3,0.6v0.1l1.3,2.1
						c0.1,0.2,0.3,0.4,0.4,0.6l0.9,1.4l0.4,0.6l0.5,0.8l0.2,0.3l0.2,0.3l0.9,1.2l0.3,0.5l0.7,0.9c0.1,0.2,0.2,0.4,0.4,0.5l0.6,0.7
						l0.5,0.6c0.2,0.2,0.3,0.4,0.5,0.6l0.5,0.6c0.6,0.7,1.3,1.4,1.9,2.1c0.3,0.4,0.7,0.8,1.1,1.1l1.1,1.1c0.3,0.2,0.5,0.5,0.8,0.7
						l0,0c1,1,2,1.9,3.1,2.7l0,0l0.5,0.2l0.5,0.3l0.5,0.2l0.5,0.2l1.5,0.6c0.4,0.1,0.8,0.3,1.1,0.4c1.1,0.4,2.2,0.7,3.3,0.9
						c2.2,0.5,4.4,0.6,6.6,0.5c0.2,0,0.4,0,0.6-0.1c0.5-0.1,1-0.1,1.5-0.2s1-0.2,1.4-0.3c0.2-0.1,0.5-0.1,0.7-0.2l0.9-0.3
						c0.3-0.1,0.6-0.2,0.9-0.4l0.6-0.3l0.5-0.3l0.5-0.3l0.6-0.3l0.5-0.3c0.2-0.1,0.4-0.2,0.5-0.4c0.2-0.1,0.4-0.2,0.5-0.4l0.5-0.4
						l0.1-0.1c0.3-0.2,0.6-0.5,0.9-0.7l0.5-0.4l0.5-0.4l0.4-0.5c0.1-0.2,0.3-0.3,0.4-0.5l0.1-0.1c0.3-0.3,0.5-0.6,0.8-0.9
						c0.1-0.2,0.3-0.3,0.4-0.5l0.1-0.1c0.2-0.3,0.5-0.6,0.7-0.9c0.3-0.3,0.5-0.7,0.7-1l0.5-0.8c0.2-0.3,0.3-0.5,0.5-0.8
						s0.3-0.4,0.4-0.6l0.3-0.4c0-0.1,0.1-0.1,0.1-0.2c0.2-0.3,0.4-0.7,0.6-1l0.3-0.6l0,0c0.4-0.9,0.8-1.7,1.2-2.6
						c0.2-0.4,0.4-0.9,0.6-1.3s0.3-0.7,0.4-1l0.1-0.2c0.2-0.6,0.5-1.2,0.7-1.8c0.4-1,0.7-2,1-3c0.4-1.4,0.8-2.8,1.1-4.2l0,0
						c0.2-0.7,0.3-1.4,0.5-2.1c0.1-0.3,0.1-0.6,0.2-0.9s0.1-0.4,0.1-0.7c0-0.1,0.1-0.3,0.1-0.4s0.1-0.4,0.1-0.7c0-0.1,0-0.3,0.1-0.4
						c0.1-0.4,0.1-0.7,0.2-1.1L64.9,153.1z M64.3,156.7c-0.1,0.7-0.3,1.4-0.4,2.1s-0.3,1.4-0.5,2c-0.3,1-0.5,2-0.8,3l-0.3,0.9
						l-0.3,0.9l-0.6,1.8c-0.3,0.9-0.6,1.8-1,2.6l0,0v0.1l-0.6,1.5c-0.2,0.4-0.3,0.7-0.5,1.1l-0.3,0.6l-0.3,0.6
						c-0.2,0.3-0.3,0.6-0.5,0.9l-0.3,0.5c-0.1,0.2-0.2,0.4-0.4,0.6c-0.5,0.9-1.1,1.7-1.6,2.5c-0.4,0.6-0.8,1.2-1.3,1.7
						c-0.1,0.2-0.3,0.3-0.4,0.5c-0.4,0.5-0.8,1-1.3,1.4c-0.6,0.6-1.2,1.1-1.9,1.6c-0.5,0.4-1,0.7-1.5,1l0,0l-0.4,0.2
						c-0.2,0.2-0.5,0.3-0.8,0.4c-0.1,0.1-0.3,0.1-0.4,0.2c-0.5,0.3-1,0.5-1.6,0.7c-0.2,0.1-0.5,0.2-0.7,0.2l-1.2,0.3
						c-0.4,0.1-0.9,0.2-1.3,0.2c-0.4,0.1-0.8,0.1-1.2,0.1c-3.5,0.2-6.9-0.4-10.1-1.7c-1-0.4-2-0.8-2.9-1.3
						c-14-11.6-22.7-28.4-24.1-46.6c0-0.3,0-0.6-0.1-0.9v-3.7c0-0.9,0-1.7,0.1-2.6c0.1-1.4,0.2-2.8,0.3-4.3c0.2-1.7,0.4-3.4,0.8-5.1
						l1.2,0.7l57.3,33.9C64.4,155.8,64.4,156.2,64.3,156.7L64.3,156.7z"/>
					<path d="M59.2,172.6l-0.3,0.6C59.1,173,59.2,172.8,59.2,172.6c0.2-0.4,0.4-0.7,0.5-1.1C59.6,171.9,59.4,172.3,59.2,172.6z
						 M57.9,175.2L57.9,175.2l0.2-0.5L57.9,175.2z M59.2,172.6l-0.3,0.6C59.1,173,59.2,172.8,59.2,172.6c0.2-0.4,0.4-0.7,0.5-1.1
						C59.6,171.9,59.4,172.3,59.2,172.6z M57.9,175.2L57.9,175.2l0.2-0.5L57.9,175.2z M59.2,172.6l-0.3,0.6
						C59.1,173,59.2,172.8,59.2,172.6c0.2-0.4,0.4-0.7,0.5-1.1C59.6,171.9,59.4,172.3,59.2,172.6z M57.9,175.2L57.9,175.2l0.2-0.5
						L57.9,175.2z M59.2,172.6l-0.3,0.6C59.1,173,59.2,172.8,59.2,172.6c0.2-0.4,0.4-0.7,0.5-1.1C59.6,171.9,59.4,172.3,59.2,172.6z
						 M57.9,175.2L57.9,175.2l0.2-0.5L57.9,175.2z M69.4,153l-0.1-0.1l-2.2-1.3l-1.8-1.1l-55.7-33L7.1,116l-2.6-1.3l-2.2,0.9
						L2,116.7c0,0.1-0.1,0.3-0.1,0.4C0.6,122.3,0,127.6,0,132.9v1c0,0.7,0,1.4,0.1,2.1v1.6c0,0.7,0.1,1.3,0.2,2
						c0.1,0.6,0.1,1.1,0.2,1.7c0,0.3,0.1,0.6,0.1,0.8l0.6,3.6l0.3,1.5c0.4,1.7,0.8,3.4,1.3,5c0.2,0.6,0.3,1.1,0.5,1.7
						c1.1,3.4,2.4,6.8,4,10c0.3,0.5,0.5,1.1,0.8,1.6l0.6,1.2c0.2,0.4,0.5,0.9,0.7,1.3s0.6,1.1,0.9,1.6l0.4,0.7
						c0.4,0.7,0.9,1.4,1.4,2.1s1,1.4,1.4,2.1c0.3,0.5,0.7,0.9,1,1.4c0.4,0.6,0.9,1.2,1.4,1.7l0,0l0.2,0.2l0.5,0.7
						c0.4,0.4,0.7,0.9,1.1,1.3l0.6,0.6c0.4,0.4,0.8,0.8,1.1,1.2l0.6,0.6l0.6,0.6l0.6,0.6l0.6,0.6l0.7,0.7l0.5,0.5
						c0.2,0.2,0.5,0.4,0.7,0.6c0.3,0.2,0.5,0.4,0.7,0.7L25,187l0.6,0.5l0.3,0.3l0.2,0.2l0,0l0.2,0.1c2.6,1.4,5.4,2.4,8.3,3l0,0
						c1.8,0.4,3.7,0.7,5.6,0.7h0.4c1.6,0,3.2-0.2,4.8-0.6h0.2l0.4-0.1l0.9-0.3l0.9-0.3l0,0c0.7-0.2,1.3-0.5,1.9-0.8l1.2-0.6
						c1.3-0.7,2.5-1.6,3.6-2.5c0.4-0.3,0.7-0.7,1.1-1l0.5-0.5l1.1-1.1c0.9-1.1,1.8-2.2,2.6-3.3c0.3-0.3,0.5-0.7,0.7-1.1
						c1-1.6,1.9-3.3,2.7-5c0.4-0.8,0.8-1.6,1.1-2.5V172c0.1-0.3,0.3-0.7,0.4-1s0.3-0.7,0.4-1c0.1-0.1,0.1-0.3,0.1-0.4
						c0.1-0.2,0.2-0.4,0.2-0.6c0.2-0.7,0.5-1.4,0.7-2.1c0.1-0.4,0.2-0.7,0.3-1.1c0-0.1,0.1-0.2,0.1-0.3l0,0c0.5-1.5,0.9-3,1.2-4.5
						l0,0c0.4-1.6,0.7-3.2,0.9-4.8c0.1-0.4,0.1-0.7,0.2-1.1l0.1-0.4l0.2-1.2L69.4,153z M62.6,163.8l-0.3,0.9l-0.3,0.9l-0.6,1.8
						c-0.3,0.9-0.6,1.8-1,2.6l0,0v0.1l-0.6,1.5c-0.2,0.4-0.3,0.7-0.5,1.1l-0.3,0.6l-0.3,0.6c-0.2,0.3-0.3,0.6-0.5,0.9l-0.3,0.5
						c-0.1,0.2-0.2,0.4-0.4,0.6c-0.5,0.9-1.1,1.7-1.6,2.5c-0.4,0.6-0.8,1.2-1.3,1.7c-0.1,0.2-0.3,0.3-0.4,0.5
						c-0.4,0.5-0.8,1-1.3,1.4c-0.6,0.6-1.2,1.1-1.9,1.6c-0.5,0.4-1,0.7-1.5,1l0,0l-0.4,0.2c-0.2,0.2-0.5,0.3-0.8,0.4
						c-0.1,0.1-0.3,0.1-0.4,0.2c-0.5,0.3-1,0.5-1.6,0.7c-0.2,0.1-0.5,0.2-0.7,0.2l-1.2,0.3c-0.4,0.1-0.9,0.2-1.3,0.2
						c-0.4,0.1-0.8,0.1-1.2,0.1c-3.5,0.2-6.9-0.4-10.1-1.7c-1-0.4-1.9-0.8-2.9-1.3l0,0c-14-11.6-22.7-28.4-24.1-46.6
						c0-0.3,0-0.6-0.1-0.9v-3.7c0-0.9,0-1.7,0.1-2.6c0.1-1.4,0.2-2.8,0.3-4.3c0.2-1.7,0.4-3.4,0.8-5.1l1.2,0.7l57.3,33.9
						c-0.1,0.3-0.1,0.7-0.2,1c-0.1,0.7-0.3,1.4-0.4,2.1s-0.3,1.4-0.5,2C63.2,161.6,63,162.7,62.6,163.8z M57.9,175.2L57.9,175.2
						l0.2-0.5L57.9,175.2z M59.2,172.6l-0.3,0.6C59.1,173,59.2,172.8,59.2,172.6c0.2-0.4,0.4-0.7,0.5-1.1
						C59.6,171.9,59.4,172.3,59.2,172.6z M57.9,175.2L57.9,175.2l0.2-0.5L57.9,175.2z M59.2,172.6l-0.3,0.6
						C59.1,173,59.2,172.8,59.2,172.6c0.2-0.4,0.4-0.7,0.5-1.1C59.6,171.9,59.4,172.3,59.2,172.6z M57.9,175.2L57.9,175.2l0.2-0.5
						L57.9,175.2z M59.2,172.6l-0.3,0.6C59.1,173,59.2,172.8,59.2,172.6c0.2-0.4,0.4-0.7,0.5-1.1C59.6,171.9,59.4,172.3,59.2,172.6z
						"/>
					<path d="M112.5,180.4L112.5,180.4l-7.2,3.6l-0.2,0.1l0,0c-0.8,0.4-1.6,0.8-2.5,1.1c-0.2,0.1-0.4,0.2-0.6,0.2
						c-0.7,0.3-1.4,0.5-2.1,0.7l-0.4,0.1l-0.5,0.1c-0.7,0.2-1.4,0.3-2.1,0.5c-0.2,0-0.5,0.1-0.7,0.1c-0.5,0.1-0.9,0.1-1.4,0.2h-0.5
						c-1.5,0.1-3,0-4.5-0.4l-2.1-0.6c-0.6-0.2-1.1-0.4-1.6-0.7l-0.6-0.3c-0.5-0.2-0.9-0.5-1.3-0.8c-0.2-0.1-0.4-0.3-0.6-0.4
						l-1.2-0.9c-0.4-0.3-0.8-0.7-1.2-1.1c-0.9-1-1.8-2-2.6-3c-0.3-0.4-0.6-0.8-0.8-1.2l-0.4-0.6l-0.3-0.5c-0.3-0.4-0.5-0.9-0.8-1.4
						l-0.3-0.6c-0.3-0.6-0.6-1.2-1-1.9c-0.4-0.7-0.7-1.4-1-2.2l0,0c-0.1-0.2-0.2-0.3-0.2-0.5c-0.2-0.6-0.5-1.1-0.7-1.7l-0.6-1.8
						l-0.3-0.9l-0.3-0.9c-0.1-0.2-0.1-0.4-0.2-0.6s-0.2-0.7-0.3-1s-0.2-0.7-0.3-1s-0.2-0.7-0.3-1c-0.1-0.3-0.2-0.7-0.2-1
						c0-0.4-0.2-0.7-0.2-1c-0.1-0.3-0.2-0.7-0.2-1c-0.1-0.3-0.1-0.7-0.2-1s-0.1-0.7-0.2-1s-0.1-0.3-0.1-0.5
						c-0.1-0.4-0.1-0.8-0.2-1.2c0-0.1,0-0.2-0.1-0.3l-0.1-1v-0.2l-0.3-2.4l-1.8,1.1l-1.8-1.1l-0.3,2.3v0.2l-0.1,1
						c0,0.1,0,0.2-0.1,0.3c-0.1,0.4-0.1,0.8-0.2,1.2l0,0c-0.1,0.3-0.1,0.7-0.2,1c-0.1,0.7-0.3,1.4-0.4,2.1s-0.3,1.4-0.5,2
						c-0.3,1-0.5,2-0.8,3l-0.3,0.9l-0.3,0.9l-0.6,1.8c-0.3,0.9-0.6,1.8-1,2.6l0,0v0.1l0,0l-0.6,1.5c-0.2,0.4-0.3,0.7-0.5,1.1
						l-0.3,0.6l-0.3,0.6c-0.2,0.3-0.3,0.6-0.5,0.9l-0.2,0.5c-0.1,0.2-0.2,0.4-0.4,0.6c-0.5,0.9-1.1,1.7-1.6,2.5
						c-0.4,0.6-0.8,1.2-1.3,1.7c-0.1,0.2-0.3,0.3-0.4,0.5c-0.4,0.5-0.8,1-1.3,1.4c-0.6,0.6-1.2,1.1-1.9,1.6c-0.5,0.4-1,0.7-1.5,1
						l0,0l-0.4,0.2c-0.2,0.2-0.5,0.3-0.8,0.4c-0.1,0.1-0.3,0.1-0.4,0.2c-0.5,0.3-1,0.5-1.6,0.7c-0.2,0.1-0.5,0.2-0.7,0.2l-1.2,0.3
						c-0.4,0.1-0.9,0.2-1.3,0.2c-0.4,0.1-0.8,0.1-1.2,0.1c-3.5,0.2-6.9-0.4-10.1-1.7c-1-0.4-2-0.8-2.9-1.3l-0.1-0.1H29l-7.2-3.6l0,0
						l-5.6-2.8l0.2,0.2l0.5,0.7c0.4,0.4,0.7,0.9,1.1,1.3l0.6,0.6c0.4,0.4,0.8,0.8,1.1,1.2l0.6,0.6l0.6,0.6l0.6,0.6l0.6,0.6l0.7,0.7
						l0.5,0.5c0.2,0.2,0.5,0.4,0.7,0.6c0.3,0.2,0.5,0.4,0.7,0.7l0.6,0.5l0.4,0.3l0.2,0.2l0.5,0.4l0.1,0.1l0.4,0.4l0.5,0.4l0.1,0.1
						h0.1c0.3,0.2,0.5,0.4,0.8,0.6l0.3,0.2l0.4,0.3l0.9,0.6l1,0.7l0.2,0.1l0.1,0.1c0.1,0.1,0.2,0.1,0.3,0.2l0.3,0.2l0.6,0.4l0.2,0.1
						c0.4,0.3,0.8,0.5,1.2,0.8l0.1,0.1l0.4,0.3l0.5,0.3l0.3,0.2c0.4,0.3,0.9,0.5,1.4,0.8s0.9,0.5,1.3,0.7H38
						c0.4,0.2,0.9,0.5,1.4,0.7l0.5,0.2c0.3,0.1,0.6,0.3,0.9,0.4l0.7,0.3l0.6,0.3l0,0c0.5,0.2,0.9,0.4,1.4,0.6
						c0.4,0.1,0.7,0.3,1.1,0.5l0.3,0.1l0,0c1,0.4,1.9,0.7,2.8,1l0,0c0.4,0.1,0.8,0.3,1.2,0.4l1.3,0.4l0,0c0.8,0.2,1.5,0.4,2.2,0.6
						l0,0c0.3,0.1,0.6,0.1,0.9,0.2l0.5,0.1l1.1,0.2H55l1.1,0.2l1,0.2c0.4,0.1,0.7,0.1,1.1,0.2h0.1l0.3,0.1H59c0.3,0,0.5,0.1,0.7,0.1
						l0.4,0.1l0.4,0.1l0.5,0.1l0.6,0.1c0.2,0,0.4,0,0.6,0.1h10.3c0.4,0,0.8-0.1,1.1-0.1s0.6-0.1,1-0.1l1.3-0.2
						c0.2,0,0.4-0.1,0.6-0.1l0.9-0.1h0.2l0.8-0.1h0.2c0.3-0.1,0.6-0.1,1-0.2h0.1l1.2-0.3l0.4-0.1c0.3-0.1,0.6-0.1,0.9-0.2
						c0.7-0.2,1.4-0.4,2.2-0.6l0,0l1.3-0.4c0.4-0.1,0.8-0.2,1.2-0.4l0,0c1-0.3,1.9-0.7,2.9-1l0,0c0.9-0.4,1.9-0.7,2.8-1.1h0.1
						c0.3-0.1,0.6-0.3,0.9-0.4l0.4-0.2c0.5-0.2,1-0.5,1.4-0.7l0.6-0.3l0.7-0.3h0.1c0.4-0.2,0.9-0.5,1.3-0.7c0.5-0.2,0.9-0.5,1.3-0.8
						c0.4-0.2,0.8-0.5,1.2-0.7c0.1,0,0.1,0,0.2-0.1l1.1-0.7l0.2-0.1c0.4-0.2,0.7-0.5,1.1-0.7l0.7-0.5l0.5-0.4l0.3-0.2
						c0.3-0.3,0.7-0.5,1-0.7l0.2-0.2l0.2-0.2c0.2-0.2,0.5-0.3,0.7-0.5l0.1-0.1l0.5-0.4l0.5-0.4l0,0l0.2-0.2h0.1l0.1-0.1
						c1.7-1.4,3.4-2.9,5-4.5l1.4-1.4c1.3-1.4,2.5-2.8,3.7-4.2L112.5,180.4z M64.6,198h-2l-1-0.1h-0.5l-0.5-0.1l-0.5-0.1h-0.2
						c-0.2,0-0.5-0.1-0.7-0.1h-0.6c-0.3,0-0.7-0.1-1-0.2c-0.3-0.1-0.6-0.1-0.9-0.2s-0.7-0.1-1-0.2h-0.1c-0.3-0.1-0.7-0.1-1-0.2
						l-0.5-0.1l-0.8-0.2c-0.6-0.2-1.3-0.3-2-0.5l-1.3-0.4l-1.1-0.3c-0.9-0.3-1.8-0.6-2.7-1l-0.6-0.2l-0.6-0.3l-0.5-0.2l-0.5-0.2
						l-0.2-0.1l0,0l-0.6-0.3c-0.2-0.1-0.5-0.2-0.7-0.3c-0.3-0.1-0.6-0.2-0.8-0.4l-0.5-0.3l0,0c1.6,0,3.2-0.2,4.8-0.6h0.2l0.4-0.1
						l0.9-0.3l0.9-0.3l0,0c0.7-0.2,1.3-0.5,1.9-0.8l1.2-0.6c1.3-0.7,2.5-1.6,3.6-2.5c0.4-0.3,0.7-0.7,1.1-1l0.5-0.5l1.1-1.1
						c0.9-1.1,1.8-2.2,2.6-3.3c0.3-0.3,0.5-0.7,0.7-1.1c1-1.6,1.9-3.3,2.7-5c0.4-0.8,0.8-1.6,1.1-2.5v-0.1c0.1-0.3,0.3-0.7,0.4-1
						s0.3-0.7,0.4-1c0.1-0.1,0.1-0.3,0.2-0.4c0.1-0.2,0.2-0.4,0.2-0.6c0.2-0.7,0.5-1.4,0.7-2.1c0.1-0.4,0.2-0.7,0.3-1.1
						c0-0.1,0.1-0.2,0.1-0.3l0.1,0.4l0.3,0.9c0.1,0.3,0.2,0.7,0.3,1.1v0.1l0.3,1c0,0.1,0.1,0.2,0.1,0.3c0.1,0.3,0.2,0.5,0.3,0.8
						l0.6,1.5c0.1,0.2,0.2,0.4,0.2,0.6c0.2,0.6,0.5,1.1,0.7,1.7l0,0c0,0.1,0,0.1,0.1,0.1c0,0,0,0,0,0c0.4,0.9,0.8,1.7,1.2,2.5l0,0
						c0.3,0.5,0.6,1.1,0.9,1.6c1.5,2.7,3.3,5.1,5.4,7.3l0.5,0.5c0.3,0.4,0.7,0.7,1.1,1c0.2,0.1,0.3,0.3,0.5,0.4
						c0.3,0.3,0.7,0.5,1,0.8c0.7,0.5,1.4,0.9,2.1,1.4c0.2,0.1,0.3,0.2,0.5,0.3l0,0c0.4,0.2,0.8,0.4,1.3,0.6c0.4,0.2,0.9,0.4,1.3,0.5
						l1.8,0.6c0.3,0.1,0.6,0.2,0.9,0.2c0.3,0.1,0.6,0.1,0.9,0.2c1.1,0.2,2.3,0.3,3.4,0.3h-0.1l-1.2,0.6l-0.5,0.2
						c-0.2,0.1-0.5,0.2-0.7,0.3h-0.1c-0.9,0.4-1.7,0.7-2.6,1.1s-1.8,0.7-2.7,1l-1.1,0.3c-0.4,0.1-0.8,0.3-1.2,0.4
						c-0.8,0.2-1.4,0.4-2.1,0.6c-0.2,0.1-0.5,0.1-0.8,0.2l-0.4,0.1c-0.4,0.1-0.7,0.2-1.1,0.2h-0.1l-0.9,0.2h-0.2l-0.7,0.1h-0.2
						l-0.9,0.1h-0.1l-0.4,0.1l-1.3,0.2c-0.3,0-0.5,0.1-0.9,0.1s-0.7,0.1-1,0.1h-6.9L64.6,198z M67.3,140l-0.2-1.6v0.1l-0.2,1.6l0,0
						l-0.4,2.5l0,0l0.6,0.4l0,0l0.6-0.4L67.3,140z"/>
					<path class="st0" d="M81.4,198.6l2.1-0.6C82.8,198.3,82.1,198.5,81.4,198.6z"/>
					<path d="M81.9,200.9l-1.1-4.6c0.6-0.2,1.3-0.3,2.1-0.5l1.3,4.5C83.5,200.6,82.7,200.8,81.9,200.9z"/>
					<path class="st0" d="M85.9,197.3c0.9-0.3,1.9-0.6,2.8-1C87.8,196.7,86.9,197,85.9,197.3z"/>
					<path d="M86.6,199.6l-1.5-4.5c0.9-0.3,1.8-0.6,2.7-1l1.7,4.4C88.6,198.9,87.6,199.3,86.6,199.6z"/>
					<path class="st0" d="M88.7,196.4c0.9-0.4,1.8-0.7,2.7-1.1C90.5,195.6,89.6,196,88.7,196.4z"/>
					<path d="M89.5,198.6l-1.7-4.4c0.9-0.3,1.8-0.7,2.6-1.1l1.9,4.3C91.4,197.8,90.5,198.2,89.5,198.6z"/>
					<path class="st0" d="M130.6,121.1c-0.2-1.3-0.5-2.5-0.8-3.7l-3.7,2.2l-56.7,33.5l-0.1,0.1l-2.2,1.3l0,0c0,0.3,0.1,0.5,0.1,0.8
						v0.4l0,0c0,0.3,0.1,0.6,0.1,0.8l0,0c0,0.1,0,0.3,0.1,0.4l0,0c0.1,0.4,0.1,0.7,0.2,1.1c0,0.2,0.1,0.4,0.1,0.7s0.1,0.7,0.2,1
						c0.1,0.3,0.2,0.7,0.2,1l0,0c0.1,0.4,0.2,0.7,0.3,1.1c0.1,0.2,0.1,0.5,0.2,0.7c0.1,0.3,0.2,0.6,0.2,0.9c0.1,0.4,0.2,0.7,0.3,1.1
						s0.3,1,0.4,1.4s0.3,0.9,0.4,1.3c0,0.1,0,0.1,0.1,0.2c0.2,0.4,0.3,0.9,0.5,1.3l0,0c0.3,0.8,0.6,1.5,0.9,2.3
						c0.3,0.8,0.6,1.5,1,2.2l0.3,0.6l0.6,1.2l0.3,0.6l0,0c0.1,0.3,0.3,0.5,0.5,0.8l0,0c0.2,0.3,0.4,0.7,0.6,1c0.2,0.3,0.4,0.7,0.6,1
						c0.4,0.6,0.9,1.3,1.3,1.9l0.3,0.4l0.3,0.4v0.1c0.2,0.2,0.4,0.5,0.6,0.7l0.1,0.1c0.1,0.1,0.2,0.3,0.4,0.4l1.2,1.2
						c0.2,0.2,0.5,0.4,0.7,0.6l1.8,1.5c0.2,0.2,0.5,0.4,0.8,0.5l0.6,0.4l0,0c0.2,0.1,0.3,0.2,0.5,0.3H84c0.2,0.1,0.3,0.2,0.5,0.3
						h0.1l0.5,0.2l0.2,0.1l0.5,0.2l0.6,0.3l0.6,0.2l0,0c0.2,0.1,0.4,0.1,0.6,0.2h0.1c0.2,0.1,0.4,0.1,0.6,0.2l0,0
						c0.2,0.1,0.4,0.1,0.6,0.1l0.3,0.1c0.3,0.1,0.7,0.1,1.1,0.2h0.3c0.2,0,0.3,0.1,0.5,0.1l0.7,0.2h3.4l2.5-0.3l0.5-0.1h0.1l0.5-0.1
						H99l0.5-0.1l0.7-0.2l0.4-0.1c0.7-0.2,1.4-0.4,2.1-0.7l0.4-0.2l0.6-0.3c0.3-0.1,0.6-0.2,0.9-0.4c0.3-0.1,0.6-0.3,0.9-0.4
						l0.9-0.4c1.7-1.4,3.3-2.8,4.9-4.4l0.6-0.6c0.2-0.2,0.4-0.4,0.6-0.7l0,0l0.7-0.7l0.6-0.7c0.4-0.5,0.8-0.9,1.2-1.4l0,0
						c0.4-0.5,0.8-1,1.2-1.4l0,0l1.2-1.5c0.4-0.5,0.8-1,1.1-1.5c0.7-1,1.5-2.1,2.1-3.1c1.9-2.9,3.5-6,5-9.1c0.3-0.6,0.5-1.1,0.8-1.7
						s0.5-1.2,0.7-1.8c0.2-0.6,0.4-1.2,0.7-1.8l0.9-2.7c0.2-0.6,0.4-1.2,0.5-1.8c0.2-0.6,0.3-1.2,0.5-1.8c0.2-0.6,0.3-1.3,0.4-1.9
						c1.1-4.7,1.6-9.6,1.6-14.4C131.7,129,131.3,125,130.6,121.1z M129.3,133c0,1.3,0,2.6-0.1,3.9c0,0.5-0.1,1.1-0.1,1.6
						c-0.1,0.9-0.2,1.9-0.3,2.8c0,0.3-0.1,0.6-0.1,0.8l-0.3,1.8c-0.1,0.5-0.2,0.9-0.3,1.4c0,0.1,0,0.3-0.1,0.4
						c-0.1,0.3-0.1,0.6-0.2,0.9l-0.9,3.6c-0.2,0.6-0.3,1.1-0.5,1.7v0.1c-0.2,0.6-0.3,1.1-0.5,1.7s-0.5,1.3-0.7,2
						c-0.1,0.2-0.2,0.5-0.3,0.7c-0.9,2.3-1.9,4.5-3,6.7c-0.1,0.3-0.3,0.5-0.4,0.8s-0.3,0.5-0.4,0.8c-0.9,1.6-1.8,3.2-2.8,4.7
						c-0.2,0.3-0.3,0.5-0.5,0.8s-0.3,0.5-0.5,0.8c-0.6,0.8-1.1,1.6-1.7,2.3c-0.2,0.2-0.3,0.4-0.5,0.6c-0.4,0.5-0.8,1-1.1,1.4
						c-0.5,0.7-1.1,1.3-1.7,1.9c-0.2,0.2-0.3,0.4-0.5,0.5c-0.7,0.8-1.4,1.6-2.2,2.3l-1.3,1.3c-1.1,1-2.1,2-3.3,2.9l0,0
						c-0.8,0.4-1.6,0.8-2.5,1.1c-0.2,0.1-0.4,0.2-0.6,0.2c-0.7,0.3-1.4,0.5-2.1,0.7l-0.4,0.1l-0.5,0.1c-0.7,0.2-1.4,0.3-2.1,0.5
						c-0.2,0-0.5,0.1-0.7,0.1c-0.5,0.1-0.9,0.1-1.4,0.2h-0.5c-1.5,0.1-3,0-4.5-0.4l-2.1-0.6c-0.6-0.2-1.1-0.4-1.6-0.7l-0.6-0.3
						c-0.5-0.2-0.9-0.5-1.3-0.8c-0.2-0.1-0.4-0.3-0.6-0.4l-1.2-0.9c-0.4-0.3-0.8-0.7-1.2-1.1c-0.9-1-1.8-2-2.6-3
						c-0.3-0.4-0.6-0.8-0.8-1.2l-0.4-0.6l-0.3-0.5c-0.3-0.4-0.5-0.9-0.8-1.4l-0.3-0.6c-0.3-0.6-0.6-1.2-1-1.9s-0.7-1.5-1-2.2l0,0
						c-0.1-0.2-0.2-0.3-0.2-0.5c-0.2-0.6-0.4-1.2-0.7-1.7l-0.6-1.8l-0.3-0.9l-0.3-0.9c-0.1-0.2-0.1-0.4-0.2-0.6s-0.2-0.7-0.3-1
						s-0.2-0.7-0.3-1s-0.2-0.7-0.3-1c-0.1-0.3-0.2-0.7-0.2-1c0-0.4-0.2-0.7-0.2-1c-0.1-0.3-0.2-0.7-0.2-1c-0.1-0.3-0.1-0.7-0.2-1
						s-0.1-0.7-0.2-1s-0.1-0.3-0.1-0.5l54.6-32.3l3.7-2.2l0.3-0.2c0.2,1.2,0.4,2.5,0.6,3.8C129.1,127.5,129.3,130.3,129.3,133
						L129.3,133z"/>
					<path d="M132.3,117.6c-0.1-0.3-0.1-0.6-0.2-0.8l-0.3-1.1l-2.2-0.9l-2.5,1.5l-2.5,1.5l-55.7,32.9l-1.8,1.1l-2.1,1.3l-0.2,0.1
						l-0.2,0.1l0.2,1.2l0.1,0.3c0.1,0.4,0.1,0.7,0.2,1.1l0.9,4.8l0,0l1.2,4.5l0,0l0.1,0.4l0.3,0.9c0.1,0.3,0.2,0.7,0.3,1.1v0.1
						l0.3,1c0,0.1,0.1,0.2,0.1,0.3c0.1,0.3,0.2,0.5,0.3,0.8l0.6,1.5c0.1,0.2,0.1,0.4,0.2,0.6c0.2,0.6,0.5,1.1,0.7,1.7
						c0,0.1,0,0.1,0.1,0.1c0,0,0,0,0,0c0.4,0.9,0.8,1.7,1.2,2.5l0,0c0.3,0.5,0.6,1.1,0.9,1.6c1.5,2.7,3.3,5.1,5.4,7.3l0.5,0.5
						c0.3,0.4,0.7,0.7,1.1,1c0.2,0.1,0.3,0.3,0.5,0.4c0.3,0.3,0.7,0.5,1,0.8c0.7,0.5,1.4,0.9,2.1,1.4c0.2,0.1,0.3,0.2,0.5,0.3l0,0
						c0.4,0.2,0.8,0.4,1.3,0.6c0.4,0.2,0.9,0.4,1.3,0.5l1.8,0.6c0.3,0.1,0.6,0.2,0.9,0.2c0.3,0.1,0.6,0.1,0.9,0.2
						c1.1,0.2,2.3,0.3,3.4,0.3h0.4c1.9,0,3.8-0.2,5.7-0.7l0,0c2.8-0.7,5.6-1.7,8.2-3l0.2-0.1l0,0l0.2-0.2h0.1l0.1-0.1
						c1.7-1.4,3.4-2.9,5-4.5l1.4-1.4c1.3-1.4,2.5-2.8,3.7-4.2c10.3-12.6,15.9-28.3,16-44.6C134,127.9,133.4,122.7,132.3,117.6z
						 M129.3,132.9L129.3,132.9c0,1.3,0,2.6-0.1,3.9c0,0.5-0.1,1.1-0.1,1.6c-0.1,0.9-0.2,1.9-0.3,2.8c0,0.3-0.1,0.6-0.1,0.8
						l-0.3,1.8c-0.1,0.5-0.2,0.9-0.3,1.4c0,0.1,0,0.3-0.1,0.4c-0.1,0.3-0.1,0.6-0.2,0.9l-0.9,3.6c-0.2,0.6-0.3,1.1-0.5,1.7v0.1
						c-0.2,0.6-0.3,1.1-0.5,1.7s-0.5,1.3-0.7,2c-0.1,0.2-0.2,0.5-0.3,0.7c-0.9,2.3-1.9,4.5-3,6.7c-0.1,0.3-0.3,0.5-0.4,0.8
						s-0.3,0.5-0.4,0.8c-0.9,1.6-1.8,3.2-2.8,4.7c-0.2,0.3-0.3,0.5-0.5,0.8s-0.3,0.5-0.5,0.8c-0.6,0.8-1.1,1.6-1.7,2.3
						c-0.2,0.2-0.3,0.4-0.5,0.6c-0.4,0.5-0.8,1-1.1,1.4c-0.5,0.7-1.1,1.3-1.7,1.9c-0.2,0.2-0.3,0.4-0.5,0.5
						c-0.7,0.8-1.4,1.6-2.2,2.3l-1.3,1.3c-1.1,1-2.1,2-3.3,2.9l0,0c-0.8,0.4-1.6,0.8-2.5,1.1c-0.2,0.1-0.4,0.2-0.6,0.2
						c-0.7,0.3-1.4,0.5-2.1,0.7l-0.4,0.1l-0.5,0.1c-0.7,0.2-1.4,0.3-2.1,0.5c-0.2,0-0.5,0.1-0.7,0.1c-0.5,0.1-0.9,0.1-1.4,0.2h-0.5
						c-1.5,0.1-3,0-4.5-0.4l-2.1-0.6c-0.6-0.2-1.1-0.4-1.6-0.7l-0.6-0.3c-0.5-0.2-0.9-0.5-1.3-0.8c-0.2-0.1-0.4-0.3-0.6-0.4
						l-1.2-0.9c-0.4-0.3-0.8-0.7-1.2-1.1c-0.9-1-1.8-2-2.6-3c-0.3-0.4-0.6-0.8-0.8-1.2l-0.4-0.6l-0.3-0.5c-0.3-0.4-0.5-0.9-0.8-1.4
						l-0.3-0.6c-0.3-0.6-0.6-1.2-1-1.9s-0.7-1.5-1-2.2l0,0c-0.1-0.2-0.2-0.3-0.2-0.5c-0.2-0.6-0.4-1.2-0.7-1.7l-0.6-1.8l-0.3-0.9
						l-0.3-0.9c-0.1-0.2-0.1-0.4-0.2-0.6s-0.2-0.7-0.3-1s-0.2-0.7-0.3-1s-0.2-0.7-0.3-1c-0.1-0.3-0.2-0.7-0.2-1c0-0.4-0.2-0.7-0.2-1
						c-0.1-0.3-0.2-0.7-0.2-1c-0.1-0.3-0.1-0.7-0.2-1s-0.1-0.7-0.2-1s-0.1-0.3-0.1-0.5l0,0l54.6-32.3l3.7-2.2l0.3-0.2
						c0.2,1.2,0.4,2.5,0.6,3.8C129.1,127.4,129.3,130.2,129.3,132.9L129.3,132.9z"/>
				</g>
			</g>
		</g>
	</g>
</g>
</svg>
