<?xml version="1.0" encoding="UTF-8"?>
<svg width="72px" height="72px" viewBox="0 0 72 72" version="1.1" xmlns="http://www.w3.org/2000/svg" xmlns:xlink="http://www.w3.org/1999/xlink">
    <defs>
        <polygon id="path-1" points="9.06 0.00013119637 62.6415356 0.00013119637 62.6415356 71.7931312 9.06 71.7931312"></polygon>
    </defs>
    <g id="robinhood" stroke="none" stroke-width="1" fill="none" fill-rule="evenodd">
        <mask id="mask-2" fill="white">
            <use xlink:href="#path-1"></use>
        </mask>
        <g id="Clip-2"></g>
        <path d="M31.485,56.4161312 L30.972,56.6271312 C27.907,57.6471312 23.314,59.1761312 19.323,61.1181312 C19.113,61.2181312 18.917,61.5231312 18.917,61.5231312 C18.808,61.7251312 18.7,61.9361312 18.613,62.1401312 C18.186,63.1611312 17.49,64.6961312 17.28,65.4061312 L17.084,65.9271312 C17.084,66.0301312 17.084,66.1231312 17.084,66.1231312 L17.172,66.2321312 L17.28,66.2321312 L17.773,66.0301312 C18.917,65.5071312 20.337,64.6961312 21.778,63.9861312 L21.873,63.9861312 C24.734,62.6541312 27.907,61.1181312 29.74,60.2051312 C29.74,60.2051312 30.044,60.0021312 30.254,59.6981312 L31.682,56.8291312 C31.682,56.7271312 31.682,56.6271312 31.682,56.6271312 C31.682,56.4161312 31.573,56.3221312 31.485,56.4161312" id="Fill-1" fill="#61717E" mask="url(#mask-2)"></path>
        <path d="M20.04,51.9241312 C20.251,51.5121312 21.156,49.7741312 21.373,49.3681312 L21.373,49.2661312 C27.603,37.5171312 35.173,26.4801312 43.836,16.3601312 L44.054,16.0521312 C44.164,15.9481312 44.164,15.8471312 44.054,15.7471312 C43.945,15.6431312 43.836,15.5391312 43.75,15.6431312 L43.344,15.6431312 C37.607,16.4651312 31.79,17.4861312 26.074,18.9141312 C25.451,19.1201312 25.148,19.4281312 25.039,19.5221312 C20.749,24.6371312 16.758,30.0511312 12.969,35.5751312 C13.093,35.8791312 13.093,36.4951312 13.093,36.4951312 C13.093,36.4951312 13.999,43.6451312 15.339,48.9611312 C12.064,58.6691312 9,71.5411312 9,71.5411312 C9,71.6511312 9,71.7521312 9,71.7521312 C9,71.8531312 9.109,71.8531312 9.195,71.8531312 L11.137,71.8531312 C11.239,71.8531312 11.347,71.7521312 11.456,71.6511312 L11.542,71.2381312 C13.484,65.9271312 15.744,60.6101312 18.186,55.4961312 C18.808,54.3661312 20.04,51.9241312 20.04,51.9241312" id="Fill-3" fill="#61717E" mask="url(#mask-2)"></path>
        <path d="M46.815,18.5081312 L46.815,18.0991312 C46.815,17.9951312 46.705,17.8881312 46.618,17.7941312 C46.51,17.7941312 46.4,17.7941312 46.299,17.8881312 L46.097,18.1971312 C35.861,29.9501312 27.393,43.0291312 20.663,57.0331312 L20.446,57.3351312 C20.446,57.4381312 20.446,57.5401312 20.446,57.6471312 C20.532,57.7421312 20.532,57.7421312 20.663,57.7421312 L20.749,57.7421312 L21.055,57.6471312 C26.77,55.2941312 32.608,53.2511312 38.426,51.5121312 C38.73,51.4111312 39.048,51.2081312 39.245,50.9041312 C41.809,45.9991312 47.719,36.3901312 47.719,36.3901312 C47.937,36.0821312 47.843,35.7751312 47.843,35.7751312 C47.843,35.7751312 46.815,24.3281312 46.815,18.5081312" id="Fill-4" fill="#61717E" mask="url(#mask-2)"></path>
        <path d="M59.897,1.9521312 C58.477,0.720131196 56.304,0.108131196 53.044,0.0101311964 C50.198,-0.0948688036 46.705,0.623131196 42.721,1.8461312 C42.112,2.0571312 41.7,2.3611312 41.186,2.7631312 C37.107,6.5481312 33.231,10.6381312 29.544,14.7271312 L29.226,15.0311312 C29.131,15.1361312 29.131,15.2331312 29.226,15.3381312 C29.327,15.4411312 29.435,15.5391312 29.544,15.4411312 L29.95,15.3381312 C35.992,14.0091312 42.004,13.0891312 47.937,12.4711312 C48.343,12.4711312 48.755,12.5751312 49.052,12.7771312 C49.379,13.0891312 49.464,13.3981312 49.464,13.8001312 C49.379,19.7331312 49.574,25.6581312 50.074,31.3801312 L50.074,31.7891312 C50.074,31.8891312 50.198,31.9931312 50.283,31.9931312 C50.283,31.9931312 50.283,31.9931312 50.393,31.9931312 C50.501,31.9931312 50.588,31.9931312 50.588,31.8891312 L50.799,31.5841312 C54.166,26.7851312 57.746,22.1811312 61.629,17.7941312 C62.033,17.2801312 62.143,16.9721312 62.251,16.5591312 C63.461,9.0981312 61.629,3.3831312 59.897,1.9521312" id="Fill-5" fill="#61717E" mask="url(#mask-2)"></path>
    </g>
</svg>
