<?xml version="1.0" encoding="UTF-8"?>
<svg width="16" height="16" viewBox="0 0 512 512" version="1.1" xmlns="http://www.w3.org/2000/svg" xmlns:xlink="http://www.w3.org/1999/xlink">
    <title>hobby_hodlr_logo_favicon</title>
    <style>
        path {
            fill: #393939;
        }
        @media (prefers-color-scheme: dark) {
            path {
                fill: #f9f9f9;
            }
        }
    </style>
    <g id="hobby_hodlr_logo" stroke="none" stroke-width="1" fill="none" fill-rule="evenodd">
        <path d="M477.249473,281.630832 C507.090579,312.485106 499.510125,369.004948 410.855786,387.925196 C410.855786,348.991364 342.650185,333.888521 255.937182,333.888521 C162.974926,333.888521 97.0434618,348.213058 97.0434618,389 C8.09330021,370.617153 2.99036015,308.019112 38.6924516,276.720091 C82.1413977,238.620159 99.8722655,301.959444 255.271581,301.959444 C396.859679,301.959444 429.603544,232.375179 477.249473,281.630832 Z" id="Path" fill="#393939" fill-rule="nonzero"></path>
        <path d="M252.407812,284 C322.451875,284 400,248.845553 400,248.845553 L400,221.944111 C400,160.335337 361.520938,98 252.518438,98 C138.445625,98 105,162.254207 105,221.944111 L105,250.13101 C105,250.13101 185.3875,284 252.407812,284 Z" id="Path" fill="#393939" fill-rule="nonzero"></path>
    </g>
</svg>
